%TF.GenerationSoftware,KiCad,Pcbnew,9.0.6*%
%TF.CreationDate,2026-02-14T22:35:57-07:00*%
%TF.ProjectId,FET_Matching,4645545f-4d61-4746-9368-696e672e6b69,rev?*%
%TF.SameCoordinates,Original*%
%TF.FileFunction,Copper,L2,Bot*%
%TF.FilePolarity,Positive*%
%FSLAX46Y46*%
G04 Gerber Fmt 4.6, Leading zero omitted, Abs format (unit mm)*
G04 Created by KiCad (PCBNEW 9.0.6) date 2026-02-14 22:35:57*
%MOMM*%
%LPD*%
G01*
G04 APERTURE LIST*
%TA.AperFunction,ComponentPad*%
%ADD10C,1.600000*%
%TD*%
%TA.AperFunction,ComponentPad*%
%ADD11O,1.600000X1.600000*%
%TD*%
%TA.AperFunction,ComponentPad*%
%ADD12R,1.600000X1.600000*%
%TD*%
%TA.AperFunction,ComponentPad*%
%ADD13R,1.700000X1.700000*%
%TD*%
%TA.AperFunction,ComponentPad*%
%ADD14O,1.700000X1.700000*%
%TD*%
%TA.AperFunction,ComponentPad*%
%ADD15R,1.699260X1.699260*%
%TD*%
%TA.AperFunction,ComponentPad*%
%ADD16C,1.699260*%
%TD*%
%TA.AperFunction,ComponentPad*%
%ADD17O,3.500000X2.250000*%
%TD*%
%TA.AperFunction,ViaPad*%
%ADD18C,0.800000*%
%TD*%
%TA.AperFunction,Conductor*%
%ADD19C,0.406400*%
%TD*%
G04 APERTURE END LIST*
D10*
%TO.P,C2,1*%
%TO.N,GNDREF*%
X108300200Y-78308200D03*
%TO.P,C2,2*%
%TO.N,VCC*%
X110800200Y-78308200D03*
%TD*%
%TO.P,R1,1*%
%TO.N,Net-(SW3-C)*%
X91874600Y-66403800D03*
D11*
%TO.P,R1,2*%
%TO.N,GNDREF*%
X104574600Y-66403800D03*
%TD*%
D10*
%TO.P,R2,1*%
%TO.N,VCC*%
X91777000Y-74698600D03*
D11*
%TO.P,R2,2*%
%TO.N,Net-(U1B-+)*%
X104477000Y-74698600D03*
%TD*%
D10*
%TO.P,R3,1*%
%TO.N,Net-(U1B-+)*%
X104493000Y-70523800D03*
D11*
%TO.P,R3,2*%
%TO.N,GNDREF*%
X91793000Y-70523800D03*
%TD*%
D12*
%TO.P,U1,1*%
%TO.N,Net-(J1-Pin_3)*%
X106917000Y-90178600D03*
D11*
%TO.P,U1,2,-*%
%TO.N,Net-(J1-Pin_2)*%
X109457000Y-90178600D03*
%TO.P,U1,3,+*%
%TO.N,Net-(J3-Pin_4)*%
X111996999Y-90178600D03*
%TO.P,U1,4,V-*%
%TO.N,GNDREF*%
X114537000Y-90178600D03*
%TO.P,U1,5,+*%
%TO.N,Net-(U1B-+)*%
X114537000Y-82558600D03*
%TO.P,U1,6,-*%
%TO.N,Net-(J3-Pin_4)*%
X111997000Y-82558600D03*
%TO.P,U1,7*%
X109457000Y-82558600D03*
%TO.P,U1,8,V+*%
%TO.N,VCC*%
X106917000Y-82558600D03*
%TD*%
D13*
%TO.P,J1,1,Pin_1*%
%TO.N,VCC*%
X107294800Y-56526999D03*
D14*
%TO.P,J1,2,Pin_2*%
%TO.N,Net-(J1-Pin_2)*%
X109834800Y-56526999D03*
%TO.P,J1,3,Pin_3*%
%TO.N,Net-(J1-Pin_3)*%
X112374799Y-56526999D03*
%TO.P,J1,4,Pin_4*%
%TO.N,VCC*%
X114914800Y-56526999D03*
%TD*%
D13*
%TO.P,J2,1,Pin_1*%
%TO.N,VCC*%
X107294800Y-61976000D03*
D14*
%TO.P,J2,2,Pin_2*%
%TO.N,Net-(J1-Pin_2)*%
X109834800Y-61976000D03*
%TO.P,J2,3,Pin_3*%
%TO.N,Net-(J1-Pin_3)*%
X112374799Y-61976000D03*
%TO.P,J2,4,Pin_4*%
%TO.N,VCC*%
X114914800Y-61976000D03*
%TD*%
D15*
%TO.P,SW1,1,1*%
%TO.N,Net-(J3-Pin_1)*%
X93040200Y-88722200D03*
D16*
%TO.P,SW1,2,2*%
%TO.N,VCC*%
X93040200Y-83642201D03*
%TD*%
D17*
%TO.P,SW2,1,A*%
%TO.N,Net-(J3-Pin_1)*%
X85420200Y-90500200D03*
%TO.P,SW2,2,B*%
%TO.N,VCC*%
X85420200Y-85801200D03*
%TO.P,SW2,3*%
%TO.N,N/C*%
X85420200Y-81102200D03*
%TD*%
D13*
%TO.P,J3,1,Pin_1*%
%TO.N,Net-(J3-Pin_1)*%
X94594800Y-56526999D03*
D14*
%TO.P,J3,2,Pin_2*%
%TO.N,GNDREF*%
X97134800Y-56526999D03*
%TO.P,J3,3,Pin_3*%
%TO.N,Net-(J1-Pin_3)*%
X99674799Y-56526999D03*
%TO.P,J3,4,Pin_4*%
%TO.N,Net-(J3-Pin_4)*%
X102214800Y-56526999D03*
%TD*%
D10*
%TO.P,R4,1*%
%TO.N,Net-(SW3-A)*%
X91770200Y-79070200D03*
%TO.P,R4,2*%
%TO.N,GNDREF*%
X104470200Y-79070200D03*
%TD*%
D12*
%TO.P,C3,1*%
%TO.N,Net-(U1B-+)*%
X114898775Y-78213000D03*
D10*
%TO.P,C3,2*%
%TO.N,GNDREF*%
X117398775Y-78213000D03*
%TD*%
D17*
%TO.P,SW3,1,A*%
%TO.N,Net-(SW3-A)*%
X85420200Y-73990200D03*
%TO.P,SW3,2,B*%
%TO.N,Net-(J1-Pin_2)*%
X85420200Y-69291200D03*
%TO.P,SW3,3,C*%
%TO.N,Net-(SW3-C)*%
X85420200Y-64592200D03*
%TD*%
D18*
%TO.N,VCC*%
X97358200Y-63525400D03*
X93141800Y-63525400D03*
%TO.N,Net-(J1-Pin_3)*%
X105638600Y-59359800D03*
%TO.N,Net-(J1-Pin_2)*%
X108940600Y-67589400D03*
X97866200Y-82778600D03*
X106197400Y-64643000D03*
X97967800Y-85623400D03*
%TO.N,Net-(J3-Pin_4)*%
X102235000Y-66725800D03*
%TD*%
D19*
%TO.N,VCC*%
X107924600Y-60121800D02*
X107294800Y-60751600D01*
X113060600Y-60121800D02*
X107924600Y-60121800D01*
X114914800Y-61976000D02*
X113060600Y-60121800D01*
X106917000Y-82558600D02*
X110800200Y-78675400D01*
X110800200Y-78675400D02*
X110800200Y-78308200D01*
X107294800Y-60751600D02*
X107294800Y-61976000D01*
X97358200Y-63525400D02*
X93141800Y-63525400D01*
%TO.N,Net-(J1-Pin_3)*%
X105638600Y-59359800D02*
X106299000Y-58699400D01*
X106299000Y-58699400D02*
X110202398Y-58699400D01*
X110202398Y-58699400D02*
X112374799Y-56526999D01*
%TO.N,Net-(J1-Pin_2)*%
X108889800Y-64643000D02*
X108940600Y-64693800D01*
X97967800Y-85623400D02*
X97866200Y-85521800D01*
X108940600Y-64693800D02*
X108940600Y-62870200D01*
X108940600Y-62870200D02*
X109834800Y-61976000D01*
X106197400Y-64643000D02*
X108889800Y-64643000D01*
X97866200Y-85521800D02*
X97866200Y-82778600D01*
X108940600Y-67589400D02*
X108940600Y-64693800D01*
%TO.N,Net-(J3-Pin_4)*%
X102214800Y-56526999D02*
X102214800Y-66705600D01*
X102214800Y-66705600D02*
X102235000Y-66725800D01*
%TO.N,Net-(J3-Pin_1)*%
X95580200Y-83642200D02*
X95580200Y-67894200D01*
X93040200Y-88722200D02*
X93040200Y-86182200D01*
X98628200Y-64846200D02*
X98628200Y-63068200D01*
X95580200Y-60020201D02*
X95580200Y-57512399D01*
X95580200Y-67894200D02*
X98628200Y-64846200D01*
X98628200Y-63068200D02*
X95580200Y-60020201D01*
X93040200Y-86182200D02*
X95580200Y-83642200D01*
X95580200Y-57512399D02*
X94594800Y-56526999D01*
%TO.N,Net-(SW3-C)*%
X91874600Y-66403800D02*
X87231800Y-66403800D01*
X87231800Y-66403800D02*
X85420200Y-64592200D01*
%TO.N,Net-(SW3-A)*%
X90500200Y-79070200D02*
X85420200Y-73990200D01*
X91770200Y-79070200D02*
X90500200Y-79070200D01*
%TD*%
%TA.AperFunction,Conductor*%
%TO.N,GNDREF*%
G36*
X120925531Y-54210613D02*
G01*
X120962076Y-54260913D01*
X120967000Y-54292000D01*
X120967000Y-96228400D01*
X120947787Y-96287531D01*
X120897487Y-96324076D01*
X120866400Y-96329000D01*
X78930000Y-96329000D01*
X78870869Y-96309787D01*
X78834324Y-96259487D01*
X78829400Y-96228400D01*
X78829400Y-90371634D01*
X83161700Y-90371634D01*
X83161700Y-90628765D01*
X83201920Y-90882705D01*
X83201924Y-90882721D01*
X83281375Y-91127246D01*
X83398101Y-91356332D01*
X83398106Y-91356341D01*
X83451250Y-91429488D01*
X83549234Y-91564352D01*
X83549236Y-91564354D01*
X83731046Y-91746164D01*
X83939059Y-91897294D01*
X83939067Y-91897298D01*
X84168153Y-92014024D01*
X84412678Y-92093475D01*
X84412681Y-92093475D01*
X84412688Y-92093478D01*
X84412693Y-92093478D01*
X84412694Y-92093479D01*
X84666634Y-92133699D01*
X84666639Y-92133700D01*
X84666641Y-92133700D01*
X86173761Y-92133700D01*
X86173765Y-92133699D01*
X86427712Y-92093478D01*
X86672246Y-92014024D01*
X86901341Y-91897294D01*
X87109354Y-91746164D01*
X87291164Y-91564354D01*
X87442294Y-91356341D01*
X87559024Y-91127246D01*
X87638478Y-90882712D01*
X87678700Y-90628759D01*
X87678700Y-90371641D01*
X87638478Y-90117688D01*
X87607621Y-90022719D01*
X87559024Y-89873153D01*
X87442298Y-89644067D01*
X87442294Y-89644059D01*
X87291164Y-89436046D01*
X87109354Y-89254236D01*
X87109352Y-89254234D01*
X86981061Y-89161026D01*
X86901341Y-89103106D01*
X86901335Y-89103103D01*
X86901332Y-89103101D01*
X86672246Y-88986375D01*
X86427721Y-88906924D01*
X86427705Y-88906920D01*
X86173765Y-88866700D01*
X86173759Y-88866700D01*
X84666641Y-88866700D01*
X84666634Y-88866700D01*
X84412694Y-88906920D01*
X84412678Y-88906924D01*
X84168153Y-88986375D01*
X83939067Y-89103101D01*
X83939056Y-89103108D01*
X83731047Y-89254234D01*
X83549234Y-89436047D01*
X83398108Y-89644056D01*
X83398101Y-89644067D01*
X83281375Y-89873153D01*
X83201924Y-90117678D01*
X83201920Y-90117694D01*
X83161700Y-90371634D01*
X78829400Y-90371634D01*
X78829400Y-85672634D01*
X83161700Y-85672634D01*
X83161700Y-85929765D01*
X83201920Y-86183705D01*
X83201924Y-86183721D01*
X83281375Y-86428246D01*
X83334190Y-86531900D01*
X83398106Y-86657341D01*
X83473671Y-86761347D01*
X83549234Y-86865352D01*
X83549236Y-86865354D01*
X83731046Y-87047164D01*
X83939059Y-87198294D01*
X83939067Y-87198298D01*
X84168153Y-87315024D01*
X84412678Y-87394475D01*
X84412681Y-87394475D01*
X84412688Y-87394478D01*
X84412693Y-87394478D01*
X84412694Y-87394479D01*
X84666634Y-87434699D01*
X84666639Y-87434700D01*
X84666641Y-87434700D01*
X86173761Y-87434700D01*
X86173765Y-87434699D01*
X86255958Y-87421681D01*
X86427712Y-87394478D01*
X86672246Y-87315024D01*
X86901341Y-87198294D01*
X87109354Y-87047164D01*
X87291164Y-86865354D01*
X87442294Y-86657341D01*
X87559024Y-86428246D01*
X87638478Y-86183712D01*
X87678700Y-85929759D01*
X87678700Y-85672641D01*
X87638478Y-85418688D01*
X87618889Y-85358400D01*
X87559024Y-85174153D01*
X87453416Y-84966887D01*
X87442294Y-84945059D01*
X87291164Y-84737046D01*
X87109354Y-84555236D01*
X87109352Y-84555234D01*
X87005347Y-84479671D01*
X86901341Y-84404106D01*
X86901335Y-84404103D01*
X86901332Y-84404101D01*
X86672246Y-84287375D01*
X86427721Y-84207924D01*
X86427705Y-84207920D01*
X86173765Y-84167700D01*
X86173759Y-84167700D01*
X84666641Y-84167700D01*
X84666634Y-84167700D01*
X84412694Y-84207920D01*
X84412678Y-84207924D01*
X84168153Y-84287375D01*
X83939067Y-84404101D01*
X83939056Y-84404108D01*
X83731047Y-84555234D01*
X83549234Y-84737047D01*
X83398108Y-84945056D01*
X83398101Y-84945067D01*
X83281375Y-85174153D01*
X83201924Y-85418678D01*
X83201920Y-85418694D01*
X83161700Y-85672634D01*
X78829400Y-85672634D01*
X78829400Y-83535308D01*
X91682070Y-83535308D01*
X91682070Y-83749093D01*
X91715509Y-83960224D01*
X91715513Y-83960240D01*
X91781570Y-84163542D01*
X91878623Y-84354017D01*
X91878624Y-84354018D01*
X92004274Y-84526962D01*
X92155438Y-84678126D01*
X92328382Y-84803776D01*
X92328383Y-84803777D01*
X92518858Y-84900830D01*
X92722160Y-84966887D01*
X92722163Y-84966887D01*
X92722170Y-84966890D01*
X92722175Y-84966890D01*
X92722176Y-84966891D01*
X92933307Y-85000330D01*
X92933311Y-85000331D01*
X92972702Y-85000331D01*
X93031833Y-85019544D01*
X93068378Y-85069844D01*
X93068378Y-85132018D01*
X93043837Y-85172066D01*
X92487387Y-85728515D01*
X92409499Y-85845082D01*
X92409498Y-85845084D01*
X92391557Y-85888399D01*
X92355848Y-85974606D01*
X92328499Y-86112104D01*
X92328499Y-86257254D01*
X92328500Y-86257275D01*
X92328500Y-87263470D01*
X92309287Y-87322601D01*
X92258987Y-87359146D01*
X92227900Y-87364070D01*
X92141932Y-87364070D01*
X92081369Y-87370581D01*
X92081367Y-87370581D01*
X91944367Y-87421679D01*
X91944363Y-87421681D01*
X91827312Y-87509305D01*
X91827305Y-87509312D01*
X91739681Y-87626363D01*
X91739679Y-87626367D01*
X91688581Y-87763367D01*
X91688581Y-87763369D01*
X91682070Y-87823932D01*
X91682070Y-89620468D01*
X91688074Y-89676310D01*
X91688581Y-89681030D01*
X91688581Y-89681032D01*
X91739679Y-89818032D01*
X91739681Y-89818036D01*
X91827305Y-89935087D01*
X91827312Y-89935094D01*
X91944363Y-90022718D01*
X91944367Y-90022720D01*
X92012867Y-90048269D01*
X92081369Y-90073819D01*
X92141932Y-90080330D01*
X93938468Y-90080330D01*
X93999031Y-90073819D01*
X94096530Y-90037453D01*
X94136032Y-90022720D01*
X94136036Y-90022718D01*
X94253087Y-89935094D01*
X94253087Y-89935093D01*
X94253091Y-89935091D01*
X94299457Y-89873154D01*
X94340718Y-89818036D01*
X94340720Y-89818032D01*
X94371923Y-89734373D01*
X94391819Y-89681031D01*
X94398330Y-89620468D01*
X94398330Y-89329962D01*
X105608500Y-89329962D01*
X105608500Y-91027238D01*
X105608908Y-91031028D01*
X105615011Y-91087800D01*
X105615011Y-91087802D01*
X105666109Y-91224802D01*
X105666111Y-91224806D01*
X105753735Y-91341857D01*
X105753742Y-91341864D01*
X105870793Y-91429488D01*
X105870797Y-91429490D01*
X105938863Y-91454877D01*
X106007799Y-91480589D01*
X106068362Y-91487100D01*
X107765638Y-91487100D01*
X107826201Y-91480589D01*
X107923700Y-91444223D01*
X107963202Y-91429490D01*
X107963206Y-91429488D01*
X108080257Y-91341864D01*
X108080257Y-91341863D01*
X108080261Y-91341861D01*
X108167889Y-91224804D01*
X108218989Y-91087801D01*
X108225500Y-91027238D01*
X108225500Y-91019352D01*
X108244713Y-90960221D01*
X108295013Y-90923676D01*
X108357187Y-90923676D01*
X108407485Y-90960220D01*
X108434392Y-90997253D01*
X108458930Y-91031028D01*
X108458932Y-91031030D01*
X108604570Y-91176668D01*
X108771197Y-91297729D01*
X108771205Y-91297733D01*
X108954709Y-91391234D01*
X109150582Y-91454877D01*
X109150584Y-91454877D01*
X109150592Y-91454880D01*
X109354014Y-91487099D01*
X109354016Y-91487100D01*
X109354019Y-91487100D01*
X109559984Y-91487100D01*
X109559984Y-91487099D01*
X109763408Y-91454880D01*
X109959290Y-91391234D01*
X110142803Y-91297729D01*
X110309430Y-91176668D01*
X110455068Y-91031030D01*
X110576129Y-90864403D01*
X110637364Y-90744222D01*
X110681327Y-90700259D01*
X110742736Y-90690533D01*
X110798134Y-90718759D01*
X110816634Y-90744222D01*
X110877870Y-90864403D01*
X110891179Y-90882721D01*
X110998929Y-91031028D01*
X110998930Y-91031029D01*
X110998931Y-91031030D01*
X111144569Y-91176668D01*
X111311196Y-91297729D01*
X111311204Y-91297733D01*
X111494708Y-91391234D01*
X111690581Y-91454877D01*
X111690583Y-91454877D01*
X111690591Y-91454880D01*
X111894013Y-91487099D01*
X111894015Y-91487100D01*
X111894018Y-91487100D01*
X112099983Y-91487100D01*
X112099983Y-91487099D01*
X112303407Y-91454880D01*
X112499289Y-91391234D01*
X112682802Y-91297729D01*
X112849429Y-91176668D01*
X112995067Y-91031030D01*
X113029764Y-90983273D01*
X113080063Y-90946728D01*
X113142237Y-90946727D01*
X113192537Y-90983272D01*
X113200787Y-90996735D01*
X113201051Y-90997253D01*
X113201060Y-90997268D01*
X113345571Y-91196173D01*
X113519426Y-91370028D01*
X113718331Y-91514539D01*
X113718342Y-91514546D01*
X113937399Y-91626162D01*
X114171221Y-91702135D01*
X114171237Y-91702139D01*
X114333799Y-91727886D01*
X114333800Y-91727885D01*
X114333800Y-90523162D01*
X114382606Y-90551341D01*
X114484339Y-90578600D01*
X114589661Y-90578600D01*
X114691394Y-90551341D01*
X114740200Y-90523162D01*
X114740200Y-91727886D01*
X114902762Y-91702139D01*
X114902778Y-91702135D01*
X115136600Y-91626162D01*
X115355657Y-91514546D01*
X115355668Y-91514539D01*
X115554573Y-91370028D01*
X115728428Y-91196173D01*
X115872939Y-90997268D01*
X115872946Y-90997257D01*
X115984562Y-90778200D01*
X116060535Y-90544378D01*
X116060538Y-90544364D01*
X116086288Y-90381800D01*
X114881563Y-90381800D01*
X114909741Y-90332994D01*
X114937000Y-90231261D01*
X114937000Y-90125939D01*
X114909741Y-90024206D01*
X114881563Y-89975400D01*
X116086288Y-89975400D01*
X116086287Y-89975399D01*
X116060538Y-89812835D01*
X116060535Y-89812821D01*
X115984562Y-89578999D01*
X115872946Y-89359942D01*
X115872939Y-89359931D01*
X115728428Y-89161026D01*
X115554573Y-88987171D01*
X115355668Y-88842660D01*
X115355657Y-88842653D01*
X115136600Y-88731037D01*
X114902778Y-88655064D01*
X114902764Y-88655061D01*
X114740200Y-88629312D01*
X114740200Y-89834037D01*
X114691394Y-89805859D01*
X114589661Y-89778600D01*
X114484339Y-89778600D01*
X114382606Y-89805859D01*
X114333800Y-89834037D01*
X114333800Y-88629312D01*
X114333799Y-88629312D01*
X114171235Y-88655061D01*
X114171221Y-88655064D01*
X113937399Y-88731037D01*
X113718342Y-88842653D01*
X113718331Y-88842660D01*
X113519426Y-88987171D01*
X113345571Y-89161026D01*
X113201060Y-89359931D01*
X113201052Y-89359944D01*
X113200783Y-89360473D01*
X113200642Y-89360613D01*
X113198989Y-89363311D01*
X113198341Y-89362914D01*
X113156816Y-89404434D01*
X113095406Y-89414155D01*
X113040011Y-89385925D01*
X113029764Y-89373926D01*
X112995068Y-89326171D01*
X112849427Y-89180530D01*
X112742854Y-89103101D01*
X112682802Y-89059471D01*
X112682796Y-89059468D01*
X112682793Y-89059466D01*
X112499289Y-88965965D01*
X112303416Y-88902322D01*
X112303402Y-88902319D01*
X112099984Y-88870100D01*
X112099980Y-88870100D01*
X111894018Y-88870100D01*
X111894014Y-88870100D01*
X111690595Y-88902319D01*
X111690581Y-88902322D01*
X111494708Y-88965965D01*
X111311204Y-89059466D01*
X111311193Y-89059473D01*
X111144570Y-89180530D01*
X110998929Y-89326171D01*
X110877872Y-89492794D01*
X110877865Y-89492805D01*
X110816634Y-89612977D01*
X110772670Y-89656941D01*
X110711261Y-89666666D01*
X110655864Y-89638439D01*
X110637364Y-89612977D01*
X110576133Y-89492805D01*
X110576129Y-89492797D01*
X110480092Y-89360613D01*
X110455069Y-89326171D01*
X110309428Y-89180530D01*
X110202855Y-89103101D01*
X110142803Y-89059471D01*
X110142797Y-89059468D01*
X110142794Y-89059466D01*
X109959290Y-88965965D01*
X109763417Y-88902322D01*
X109763403Y-88902319D01*
X109559985Y-88870100D01*
X109559981Y-88870100D01*
X109354019Y-88870100D01*
X109354015Y-88870100D01*
X109150596Y-88902319D01*
X109150582Y-88902322D01*
X108954709Y-88965965D01*
X108771205Y-89059466D01*
X108771194Y-89059473D01*
X108604571Y-89180530D01*
X108458930Y-89326171D01*
X108407487Y-89396978D01*
X108357188Y-89433523D01*
X108295013Y-89433523D01*
X108244713Y-89396979D01*
X108225500Y-89337847D01*
X108225500Y-89329962D01*
X108225092Y-89326170D01*
X108218989Y-89269399D01*
X108185843Y-89180532D01*
X108167890Y-89132397D01*
X108167888Y-89132393D01*
X108080264Y-89015342D01*
X108080257Y-89015335D01*
X107963206Y-88927711D01*
X107963202Y-88927709D01*
X107826201Y-88876611D01*
X107765638Y-88870100D01*
X106068362Y-88870100D01*
X106007799Y-88876611D01*
X106007797Y-88876611D01*
X105870797Y-88927709D01*
X105870793Y-88927711D01*
X105753742Y-89015335D01*
X105753735Y-89015342D01*
X105666111Y-89132393D01*
X105666109Y-89132397D01*
X105615011Y-89269397D01*
X105615011Y-89269399D01*
X105608500Y-89329962D01*
X94398330Y-89329962D01*
X94398330Y-87823932D01*
X94391819Y-87763369D01*
X94377084Y-87723865D01*
X94340720Y-87626367D01*
X94340718Y-87626363D01*
X94253094Y-87509312D01*
X94253087Y-87509305D01*
X94136036Y-87421681D01*
X94136032Y-87421679D01*
X93999031Y-87370581D01*
X93938468Y-87364070D01*
X93852500Y-87364070D01*
X93793369Y-87344857D01*
X93756824Y-87294557D01*
X93751900Y-87263470D01*
X93751900Y-86518665D01*
X93771113Y-86459534D01*
X93781359Y-86447536D01*
X96028148Y-84200746D01*
X96028155Y-84200741D01*
X96033881Y-84195015D01*
X96033883Y-84195014D01*
X96133014Y-84095883D01*
X96210901Y-83979317D01*
X96264550Y-83849795D01*
X96280177Y-83771234D01*
X96291901Y-83712297D01*
X96291901Y-83572104D01*
X96291901Y-83567961D01*
X96291900Y-83567935D01*
X96291900Y-82689121D01*
X96957700Y-82689121D01*
X96957700Y-82868079D01*
X96969337Y-82926586D01*
X96992613Y-83043602D01*
X97061095Y-83208931D01*
X97061097Y-83208935D01*
X97061098Y-83208936D01*
X97137546Y-83323349D01*
X97154500Y-83379238D01*
X97154500Y-85192844D01*
X97146842Y-85231342D01*
X97094213Y-85358397D01*
X97059300Y-85533921D01*
X97059300Y-85712878D01*
X97094213Y-85888402D01*
X97162695Y-86053731D01*
X97162700Y-86053740D01*
X97262120Y-86202533D01*
X97388666Y-86329079D01*
X97537459Y-86428499D01*
X97537468Y-86428504D01*
X97702797Y-86496986D01*
X97702798Y-86496986D01*
X97702800Y-86496987D01*
X97878321Y-86531900D01*
X97878322Y-86531900D01*
X98057278Y-86531900D01*
X98057279Y-86531900D01*
X98232800Y-86496987D01*
X98398136Y-86428502D01*
X98546935Y-86329078D01*
X98673478Y-86202535D01*
X98772902Y-86053736D01*
X98841387Y-85888400D01*
X98876300Y-85712879D01*
X98876300Y-85533921D01*
X98841387Y-85358400D01*
X98841386Y-85358397D01*
X98772904Y-85193068D01*
X98772899Y-85193059D01*
X98673479Y-85044266D01*
X98607365Y-84978152D01*
X98579139Y-84922754D01*
X98577900Y-84907017D01*
X98577900Y-83379238D01*
X98594853Y-83323349D01*
X98671302Y-83208936D01*
X98739787Y-83043600D01*
X98774700Y-82868079D01*
X98774700Y-82689121D01*
X98739787Y-82513600D01*
X98733863Y-82499298D01*
X98730080Y-82490164D01*
X98715769Y-82455614D01*
X105608500Y-82455614D01*
X105608500Y-82661585D01*
X105640719Y-82865003D01*
X105640722Y-82865017D01*
X105704365Y-83060890D01*
X105797866Y-83244394D01*
X105797871Y-83244403D01*
X105842430Y-83305733D01*
X105918930Y-83411028D01*
X106064571Y-83556669D01*
X106085816Y-83572104D01*
X106231197Y-83677729D01*
X106231205Y-83677733D01*
X106414709Y-83771234D01*
X106610582Y-83834877D01*
X106610584Y-83834877D01*
X106610592Y-83834880D01*
X106814014Y-83867099D01*
X106814016Y-83867100D01*
X106814019Y-83867100D01*
X107019984Y-83867100D01*
X107019984Y-83867099D01*
X107223408Y-83834880D01*
X107419290Y-83771234D01*
X107602803Y-83677729D01*
X107769430Y-83556668D01*
X107915068Y-83411030D01*
X108036129Y-83244403D01*
X108097365Y-83124220D01*
X108141329Y-83080258D01*
X108202737Y-83070532D01*
X108258135Y-83098758D01*
X108276635Y-83124221D01*
X108319799Y-83208936D01*
X108337871Y-83244403D01*
X108382430Y-83305733D01*
X108458930Y-83411028D01*
X108604571Y-83556669D01*
X108625816Y-83572104D01*
X108771197Y-83677729D01*
X108771205Y-83677733D01*
X108954709Y-83771234D01*
X109150582Y-83834877D01*
X109150584Y-83834877D01*
X109150592Y-83834880D01*
X109354014Y-83867099D01*
X109354016Y-83867100D01*
X109354019Y-83867100D01*
X109559984Y-83867100D01*
X109559984Y-83867099D01*
X109763408Y-83834880D01*
X109959290Y-83771234D01*
X110142803Y-83677729D01*
X110309430Y-83556668D01*
X110455068Y-83411030D01*
X110576129Y-83244403D01*
X110637365Y-83124220D01*
X110681329Y-83080258D01*
X110742737Y-83070532D01*
X110798135Y-83098758D01*
X110816635Y-83124221D01*
X110859799Y-83208936D01*
X110877871Y-83244403D01*
X110922430Y-83305733D01*
X110998930Y-83411028D01*
X111144571Y-83556669D01*
X111165816Y-83572104D01*
X111311197Y-83677729D01*
X111311205Y-83677733D01*
X111494709Y-83771234D01*
X111690582Y-83834877D01*
X111690584Y-83834877D01*
X111690592Y-83834880D01*
X111894014Y-83867099D01*
X111894016Y-83867100D01*
X111894019Y-83867100D01*
X112099984Y-83867100D01*
X112099984Y-83867099D01*
X112303408Y-83834880D01*
X112499290Y-83771234D01*
X112682803Y-83677729D01*
X112849430Y-83556668D01*
X112995068Y-83411030D01*
X113116129Y-83244403D01*
X113177365Y-83124220D01*
X113221329Y-83080258D01*
X113282737Y-83070532D01*
X113338135Y-83098758D01*
X113356635Y-83124221D01*
X113399799Y-83208936D01*
X113417871Y-83244403D01*
X113462430Y-83305733D01*
X113538930Y-83411028D01*
X113684571Y-83556669D01*
X113705816Y-83572104D01*
X113851197Y-83677729D01*
X113851205Y-83677733D01*
X114034709Y-83771234D01*
X114230582Y-83834877D01*
X114230584Y-83834877D01*
X114230592Y-83834880D01*
X114434014Y-83867099D01*
X114434016Y-83867100D01*
X114434019Y-83867100D01*
X114639984Y-83867100D01*
X114639984Y-83867099D01*
X114843408Y-83834880D01*
X115039290Y-83771234D01*
X115222803Y-83677729D01*
X115389430Y-83556668D01*
X115535068Y-83411030D01*
X115656129Y-83244403D01*
X115749634Y-83060890D01*
X115813280Y-82865008D01*
X115845500Y-82661581D01*
X115845500Y-82455619D01*
X115845500Y-82455615D01*
X115845499Y-82455614D01*
X115813280Y-82252192D01*
X115807000Y-82232864D01*
X115749634Y-82056309D01*
X115656133Y-81872805D01*
X115656129Y-81872797D01*
X115535068Y-81706170D01*
X115389430Y-81560532D01*
X115389428Y-81560530D01*
X115306116Y-81500001D01*
X115222803Y-81439471D01*
X115222797Y-81439468D01*
X115222794Y-81439466D01*
X115039290Y-81345965D01*
X114843417Y-81282322D01*
X114843403Y-81282319D01*
X114639985Y-81250100D01*
X114639981Y-81250100D01*
X114434019Y-81250100D01*
X114434015Y-81250100D01*
X114230596Y-81282319D01*
X114230582Y-81282322D01*
X114034709Y-81345965D01*
X113851205Y-81439466D01*
X113851194Y-81439473D01*
X113684571Y-81560530D01*
X113538930Y-81706171D01*
X113417873Y-81872794D01*
X113417866Y-81872805D01*
X113356635Y-81992978D01*
X113312671Y-82036941D01*
X113251262Y-82046667D01*
X113195865Y-82018441D01*
X113177365Y-81992978D01*
X113116133Y-81872805D01*
X113116129Y-81872797D01*
X112995068Y-81706170D01*
X112849430Y-81560532D01*
X112849428Y-81560530D01*
X112766116Y-81500001D01*
X112682803Y-81439471D01*
X112682797Y-81439468D01*
X112682794Y-81439466D01*
X112499290Y-81345965D01*
X112303417Y-81282322D01*
X112303403Y-81282319D01*
X112099985Y-81250100D01*
X112099981Y-81250100D01*
X111894019Y-81250100D01*
X111894015Y-81250100D01*
X111690596Y-81282319D01*
X111690582Y-81282322D01*
X111494709Y-81345965D01*
X111311205Y-81439466D01*
X111311194Y-81439473D01*
X111144571Y-81560530D01*
X110998930Y-81706171D01*
X110877873Y-81872794D01*
X110877866Y-81872805D01*
X110816635Y-81992978D01*
X110772671Y-82036941D01*
X110711262Y-82046667D01*
X110655865Y-82018441D01*
X110637365Y-81992978D01*
X110576133Y-81872805D01*
X110576129Y-81872797D01*
X110455068Y-81706170D01*
X110309430Y-81560532D01*
X110309428Y-81560530D01*
X110226116Y-81500001D01*
X110142803Y-81439471D01*
X110142797Y-81439468D01*
X110142794Y-81439466D01*
X109959290Y-81345965D01*
X109763417Y-81282322D01*
X109763403Y-81282319D01*
X109559985Y-81250100D01*
X109559981Y-81250100D01*
X109474865Y-81250100D01*
X109415734Y-81230887D01*
X109379189Y-81180587D01*
X109379189Y-81118413D01*
X109403730Y-81078365D01*
X110075950Y-80406146D01*
X110835931Y-79646165D01*
X110891329Y-79617939D01*
X110899267Y-79617313D01*
X110899244Y-79617010D01*
X110903172Y-79616700D01*
X110903181Y-79616700D01*
X111106608Y-79584480D01*
X111302490Y-79520834D01*
X111486003Y-79427329D01*
X111652630Y-79306268D01*
X111798268Y-79160630D01*
X111919329Y-78994003D01*
X112012834Y-78810490D01*
X112076480Y-78614608D01*
X112108700Y-78411181D01*
X112108700Y-78205219D01*
X112108700Y-78205215D01*
X112108699Y-78205214D01*
X112105539Y-78185263D01*
X112076480Y-78001792D01*
X112072038Y-77988120D01*
X112012834Y-77805909D01*
X111919333Y-77622405D01*
X111919329Y-77622397D01*
X111798268Y-77455770D01*
X111706860Y-77364362D01*
X113590275Y-77364362D01*
X113590275Y-79061638D01*
X113595370Y-79109025D01*
X113596786Y-79122200D01*
X113596786Y-79122202D01*
X113647884Y-79259202D01*
X113647886Y-79259206D01*
X113735510Y-79376257D01*
X113735517Y-79376264D01*
X113852568Y-79463888D01*
X113852572Y-79463890D01*
X113921072Y-79489439D01*
X113989574Y-79514989D01*
X114050137Y-79521500D01*
X115747413Y-79521500D01*
X115807976Y-79514989D01*
X115928059Y-79470200D01*
X115944977Y-79463890D01*
X115944981Y-79463888D01*
X116062032Y-79376264D01*
X116062032Y-79376263D01*
X116062036Y-79376261D01*
X116149664Y-79259204D01*
X116192259Y-79145003D01*
X116215380Y-79109025D01*
X117011447Y-78312957D01*
X117026034Y-78367394D01*
X117078695Y-78458606D01*
X117153169Y-78533080D01*
X117244381Y-78585741D01*
X117298816Y-78600326D01*
X116446947Y-79452194D01*
X116446947Y-79452195D01*
X116580106Y-79548940D01*
X116580107Y-79548941D01*
X116799174Y-79660562D01*
X117032996Y-79736535D01*
X117033010Y-79736538D01*
X117275838Y-79774999D01*
X117275840Y-79775000D01*
X117521710Y-79775000D01*
X117521711Y-79774999D01*
X117764539Y-79736538D01*
X117764553Y-79736535D01*
X117998375Y-79660562D01*
X118217432Y-79548946D01*
X118217443Y-79548939D01*
X118350601Y-79452194D01*
X117498733Y-78600326D01*
X117553169Y-78585741D01*
X117644381Y-78533080D01*
X117718855Y-78458606D01*
X117771516Y-78367394D01*
X117786101Y-78312958D01*
X118637969Y-79164826D01*
X118734714Y-79031668D01*
X118734721Y-79031657D01*
X118846337Y-78812600D01*
X118922310Y-78578778D01*
X118922313Y-78578764D01*
X118960774Y-78335936D01*
X118960775Y-78335935D01*
X118960775Y-78090064D01*
X118960774Y-78090063D01*
X118922313Y-77847235D01*
X118922310Y-77847221D01*
X118846337Y-77613399D01*
X118734716Y-77394332D01*
X118734715Y-77394331D01*
X118637970Y-77261172D01*
X118637969Y-77261172D01*
X117786101Y-78113040D01*
X117771516Y-78058606D01*
X117718855Y-77967394D01*
X117644381Y-77892920D01*
X117553169Y-77840259D01*
X117498732Y-77825672D01*
X118350601Y-76973804D01*
X118350601Y-76973803D01*
X118217443Y-76877059D01*
X118217442Y-76877058D01*
X117998375Y-76765437D01*
X117764553Y-76689464D01*
X117764539Y-76689461D01*
X117521711Y-76651000D01*
X117275839Y-76651000D01*
X117033010Y-76689461D01*
X117032996Y-76689464D01*
X116799174Y-76765437D01*
X116580111Y-76877056D01*
X116446947Y-76973804D01*
X117298816Y-77825673D01*
X117244381Y-77840259D01*
X117153169Y-77892920D01*
X117078695Y-77967394D01*
X117026034Y-78058606D01*
X117011448Y-78113041D01*
X116215380Y-77316973D01*
X116192258Y-77280994D01*
X116149665Y-77166797D01*
X116079024Y-77072432D01*
X116079023Y-77072431D01*
X116062036Y-77049739D01*
X116062032Y-77049735D01*
X115944981Y-76962111D01*
X115944977Y-76962109D01*
X115807976Y-76911011D01*
X115747413Y-76904500D01*
X114050137Y-76904500D01*
X113989574Y-76911011D01*
X113989572Y-76911011D01*
X113852572Y-76962109D01*
X113852568Y-76962111D01*
X113735517Y-77049735D01*
X113735510Y-77049742D01*
X113647886Y-77166793D01*
X113647884Y-77166797D01*
X113596786Y-77303797D01*
X113596786Y-77303799D01*
X113590275Y-77364362D01*
X111706860Y-77364362D01*
X111652630Y-77310132D01*
X111652628Y-77310130D01*
X111569316Y-77249601D01*
X111486003Y-77189071D01*
X111485997Y-77189068D01*
X111485994Y-77189066D01*
X111302490Y-77095565D01*
X111106617Y-77031922D01*
X111106603Y-77031919D01*
X110903185Y-76999700D01*
X110903181Y-76999700D01*
X110697219Y-76999700D01*
X110697215Y-76999700D01*
X110493796Y-77031919D01*
X110493782Y-77031922D01*
X110297909Y-77095565D01*
X110114405Y-77189066D01*
X110114394Y-77189073D01*
X109947771Y-77310130D01*
X109802131Y-77455770D01*
X109788257Y-77474866D01*
X109737956Y-77511410D01*
X109675781Y-77511408D01*
X109625484Y-77474864D01*
X109539395Y-77356372D01*
X109539394Y-77356372D01*
X108687526Y-78208240D01*
X108672941Y-78153806D01*
X108620280Y-78062594D01*
X108545806Y-77988120D01*
X108454594Y-77935459D01*
X108400157Y-77920872D01*
X109252026Y-77069004D01*
X109252026Y-77069003D01*
X109118868Y-76972259D01*
X109118867Y-76972258D01*
X108899800Y-76860637D01*
X108665978Y-76784664D01*
X108665964Y-76784661D01*
X108423136Y-76746200D01*
X108177264Y-76746200D01*
X107934435Y-76784661D01*
X107934421Y-76784664D01*
X107700599Y-76860637D01*
X107481536Y-76972256D01*
X107348372Y-77069004D01*
X108200241Y-77920873D01*
X108145806Y-77935459D01*
X108054594Y-77988120D01*
X107980120Y-78062594D01*
X107927459Y-78153806D01*
X107912873Y-78208241D01*
X107061004Y-77356372D01*
X106964256Y-77489536D01*
X106852637Y-77708599D01*
X106776664Y-77942421D01*
X106776661Y-77942435D01*
X106738200Y-78185263D01*
X106738200Y-78431136D01*
X106776661Y-78673964D01*
X106776664Y-78673978D01*
X106852637Y-78907800D01*
X106964258Y-79126867D01*
X106964259Y-79126868D01*
X107061003Y-79260026D01*
X107061004Y-79260026D01*
X107912872Y-78408157D01*
X107927459Y-78462594D01*
X107980120Y-78553806D01*
X108054594Y-78628280D01*
X108145806Y-78680941D01*
X108200240Y-78695526D01*
X107348372Y-79547394D01*
X107348372Y-79547395D01*
X107481531Y-79644140D01*
X107481532Y-79644141D01*
X107700599Y-79755762D01*
X107934421Y-79831735D01*
X107934435Y-79831738D01*
X108177263Y-79870199D01*
X108177265Y-79870200D01*
X108356032Y-79870200D01*
X108415163Y-79889413D01*
X108451708Y-79939713D01*
X108451708Y-80001887D01*
X108427167Y-80041935D01*
X107228035Y-81241067D01*
X107172637Y-81269293D01*
X107141162Y-81269293D01*
X107019985Y-81250100D01*
X107019981Y-81250100D01*
X106814019Y-81250100D01*
X106814015Y-81250100D01*
X106610596Y-81282319D01*
X106610582Y-81282322D01*
X106414709Y-81345965D01*
X106231205Y-81439466D01*
X106231194Y-81439473D01*
X106064571Y-81560530D01*
X105918930Y-81706171D01*
X105797873Y-81872794D01*
X105797866Y-81872805D01*
X105704365Y-82056309D01*
X105640722Y-82252182D01*
X105640719Y-82252196D01*
X105608500Y-82455614D01*
X98715769Y-82455614D01*
X98671304Y-82348268D01*
X98671299Y-82348259D01*
X98571879Y-82199466D01*
X98445333Y-82072920D01*
X98296540Y-81973500D01*
X98296531Y-81973495D01*
X98131202Y-81905013D01*
X98014186Y-81881737D01*
X97955679Y-81870100D01*
X97776721Y-81870100D01*
X97732840Y-81878828D01*
X97601197Y-81905013D01*
X97435868Y-81973495D01*
X97435859Y-81973500D01*
X97287066Y-82072920D01*
X97287065Y-82072922D01*
X97160522Y-82199465D01*
X97160520Y-82199466D01*
X97061100Y-82348259D01*
X97061095Y-82348268D01*
X96992613Y-82513597D01*
X96972240Y-82616024D01*
X96957700Y-82689121D01*
X96291900Y-82689121D01*
X96291900Y-78947263D01*
X102908200Y-78947263D01*
X102908200Y-79193136D01*
X102946661Y-79435964D01*
X102946664Y-79435978D01*
X103022637Y-79669800D01*
X103134258Y-79888867D01*
X103134259Y-79888868D01*
X103231003Y-80022026D01*
X103231004Y-80022026D01*
X104082872Y-79170157D01*
X104097459Y-79224594D01*
X104150120Y-79315806D01*
X104224594Y-79390280D01*
X104315806Y-79442941D01*
X104370241Y-79457526D01*
X103518372Y-80309394D01*
X103518372Y-80309395D01*
X103651531Y-80406140D01*
X103651532Y-80406141D01*
X103870599Y-80517762D01*
X104104421Y-80593735D01*
X104104435Y-80593738D01*
X104347263Y-80632199D01*
X104347265Y-80632200D01*
X104593135Y-80632200D01*
X104593136Y-80632199D01*
X104835964Y-80593738D01*
X104835978Y-80593735D01*
X105069800Y-80517762D01*
X105288857Y-80406146D01*
X105288868Y-80406139D01*
X105422026Y-80309394D01*
X104570158Y-79457526D01*
X104624594Y-79442941D01*
X104715806Y-79390280D01*
X104790280Y-79315806D01*
X104842941Y-79224594D01*
X104857526Y-79170158D01*
X105709394Y-80022026D01*
X105806139Y-79888868D01*
X105806146Y-79888857D01*
X105917762Y-79669800D01*
X105993735Y-79435978D01*
X105993738Y-79435964D01*
X106032199Y-79193136D01*
X106032200Y-79193135D01*
X106032200Y-78947264D01*
X106032199Y-78947263D01*
X105993738Y-78704435D01*
X105993735Y-78704421D01*
X105917762Y-78470599D01*
X105806141Y-78251532D01*
X105798086Y-78240445D01*
X105798085Y-78240444D01*
X105709395Y-78118372D01*
X105709394Y-78118372D01*
X104857526Y-78970240D01*
X104842941Y-78915806D01*
X104790280Y-78824594D01*
X104715806Y-78750120D01*
X104624594Y-78697459D01*
X104570157Y-78682872D01*
X105422026Y-77831004D01*
X105422026Y-77831003D01*
X105288868Y-77734259D01*
X105288867Y-77734258D01*
X105069800Y-77622637D01*
X104835978Y-77546664D01*
X104835964Y-77546661D01*
X104593136Y-77508200D01*
X104347264Y-77508200D01*
X104104435Y-77546661D01*
X104104421Y-77546664D01*
X103870599Y-77622637D01*
X103651536Y-77734256D01*
X103518372Y-77831004D01*
X104370241Y-78682873D01*
X104315806Y-78697459D01*
X104224594Y-78750120D01*
X104150120Y-78824594D01*
X104097459Y-78915806D01*
X104082873Y-78970241D01*
X103231004Y-78118372D01*
X103134256Y-78251536D01*
X103022637Y-78470599D01*
X102946664Y-78704421D01*
X102946661Y-78704435D01*
X102908200Y-78947263D01*
X96291900Y-78947263D01*
X96291900Y-74595614D01*
X103168500Y-74595614D01*
X103168500Y-74801585D01*
X103200719Y-75005003D01*
X103200722Y-75005017D01*
X103264365Y-75200890D01*
X103357866Y-75384394D01*
X103357871Y-75384403D01*
X103418401Y-75467716D01*
X103478930Y-75551028D01*
X103478932Y-75551030D01*
X103624570Y-75696668D01*
X103791197Y-75817729D01*
X103791205Y-75817733D01*
X103974709Y-75911234D01*
X104170582Y-75974877D01*
X104170584Y-75974877D01*
X104170592Y-75974880D01*
X104374014Y-76007099D01*
X104374016Y-76007100D01*
X104374019Y-76007100D01*
X104579984Y-76007100D01*
X104579984Y-76007099D01*
X104783408Y-75974880D01*
X104979290Y-75911234D01*
X105162803Y-75817729D01*
X105329430Y-75696668D01*
X105475068Y-75551030D01*
X105596129Y-75384403D01*
X105689634Y-75200890D01*
X105753280Y-75005008D01*
X105785500Y-74801581D01*
X105785500Y-74595619D01*
X105785500Y-74595615D01*
X105785499Y-74595614D01*
X105779950Y-74560577D01*
X105753280Y-74392192D01*
X105753277Y-74392182D01*
X105689634Y-74196309D01*
X105596133Y-74012805D01*
X105596129Y-74012797D01*
X105475068Y-73846170D01*
X105329430Y-73700532D01*
X105329428Y-73700530D01*
X105246116Y-73640001D01*
X105162803Y-73579471D01*
X105162797Y-73579468D01*
X105162794Y-73579466D01*
X104979290Y-73485965D01*
X104783417Y-73422322D01*
X104783403Y-73422319D01*
X104579985Y-73390100D01*
X104579981Y-73390100D01*
X104374019Y-73390100D01*
X104374015Y-73390100D01*
X104170596Y-73422319D01*
X104170582Y-73422322D01*
X103974709Y-73485965D01*
X103791205Y-73579466D01*
X103791194Y-73579473D01*
X103624571Y-73700530D01*
X103478930Y-73846171D01*
X103357873Y-74012794D01*
X103357866Y-74012805D01*
X103264365Y-74196309D01*
X103200722Y-74392182D01*
X103200719Y-74392196D01*
X103168500Y-74595614D01*
X96291900Y-74595614D01*
X96291900Y-70420814D01*
X103184500Y-70420814D01*
X103184500Y-70626785D01*
X103216719Y-70830203D01*
X103216722Y-70830217D01*
X103280365Y-71026090D01*
X103373866Y-71209594D01*
X103373871Y-71209603D01*
X103434401Y-71292916D01*
X103494930Y-71376228D01*
X103494932Y-71376230D01*
X103640570Y-71521868D01*
X103807197Y-71642929D01*
X103807205Y-71642933D01*
X103990709Y-71736434D01*
X104186582Y-71800077D01*
X104186584Y-71800077D01*
X104186592Y-71800080D01*
X104390014Y-71832299D01*
X104390016Y-71832300D01*
X104390019Y-71832300D01*
X104595984Y-71832300D01*
X104595984Y-71832299D01*
X104799408Y-71800080D01*
X104995290Y-71736434D01*
X105178803Y-71642929D01*
X105345430Y-71521868D01*
X105491068Y-71376230D01*
X105612129Y-71209603D01*
X105705634Y-71026090D01*
X105769280Y-70830208D01*
X105801500Y-70626781D01*
X105801500Y-70420819D01*
X105801500Y-70420815D01*
X105801499Y-70420814D01*
X105791131Y-70355352D01*
X105769280Y-70217392D01*
X105705634Y-70021510D01*
X105705634Y-70021509D01*
X105612133Y-69838005D01*
X105612129Y-69837997D01*
X105492770Y-69673712D01*
X105491069Y-69671371D01*
X105345428Y-69525730D01*
X105199578Y-69419765D01*
X105178803Y-69404671D01*
X105178797Y-69404668D01*
X105178794Y-69404666D01*
X104995290Y-69311165D01*
X104799417Y-69247522D01*
X104799403Y-69247519D01*
X104595985Y-69215300D01*
X104595981Y-69215300D01*
X104390019Y-69215300D01*
X104390015Y-69215300D01*
X104186596Y-69247519D01*
X104186582Y-69247522D01*
X103990709Y-69311165D01*
X103807205Y-69404666D01*
X103807194Y-69404673D01*
X103640571Y-69525730D01*
X103494930Y-69671371D01*
X103373873Y-69837994D01*
X103373866Y-69838005D01*
X103280365Y-70021509D01*
X103216722Y-70217382D01*
X103216719Y-70217396D01*
X103184500Y-70420814D01*
X96291900Y-70420814D01*
X96291900Y-68230664D01*
X96311113Y-68171533D01*
X96321359Y-68159535D01*
X99076144Y-65404749D01*
X99076158Y-65404738D01*
X99081881Y-65399015D01*
X99081883Y-65399014D01*
X99181014Y-65299883D01*
X99258901Y-65183317D01*
X99274614Y-65145380D01*
X99285726Y-65118555D01*
X99285726Y-65118553D01*
X99312551Y-65053795D01*
X99339901Y-64916296D01*
X99339901Y-64776104D01*
X99339901Y-64771961D01*
X99339900Y-64771935D01*
X99339900Y-63143275D01*
X99339901Y-63143254D01*
X99339901Y-62998104D01*
X99332063Y-62958700D01*
X99312550Y-62860604D01*
X99294447Y-62816900D01*
X99258901Y-62731083D01*
X99181014Y-62614517D01*
X99081883Y-62515386D01*
X99081879Y-62515383D01*
X97830484Y-61263988D01*
X96321365Y-59754869D01*
X96293139Y-59699471D01*
X96291900Y-59683734D01*
X96291900Y-58070874D01*
X96311113Y-58011743D01*
X96361413Y-57975198D01*
X96423587Y-57975198D01*
X96438172Y-57981239D01*
X96516008Y-58020899D01*
X96757312Y-58099304D01*
X96757315Y-58099305D01*
X96931600Y-58126908D01*
X96931600Y-56987030D01*
X96941807Y-56992924D01*
X97068974Y-57026999D01*
X97200626Y-57026999D01*
X97327793Y-56992924D01*
X97338000Y-56987030D01*
X97338000Y-58126907D01*
X97512284Y-58099305D01*
X97512287Y-58099304D01*
X97753591Y-58020899D01*
X97979663Y-57905709D01*
X97979674Y-57905702D01*
X98184946Y-57756565D01*
X98364362Y-57577149D01*
X98480239Y-57417657D01*
X98530539Y-57381112D01*
X98592713Y-57381111D01*
X98635382Y-57409623D01*
X98635798Y-57409208D01*
X98637885Y-57411295D01*
X98638127Y-57411457D01*
X98638592Y-57412001D01*
X98638593Y-57412003D01*
X98789795Y-57563205D01*
X98962790Y-57688893D01*
X98962798Y-57688897D01*
X99153315Y-57785971D01*
X99356673Y-57852045D01*
X99356675Y-57852045D01*
X99356683Y-57852048D01*
X99567879Y-57885498D01*
X99567881Y-57885499D01*
X99567883Y-57885499D01*
X99781717Y-57885499D01*
X99781717Y-57885498D01*
X99992915Y-57852048D01*
X100196282Y-57785971D01*
X100386808Y-57688893D01*
X100559803Y-57563205D01*
X100711005Y-57412003D01*
X100836693Y-57239008D01*
X100855164Y-57202755D01*
X100899126Y-57158793D01*
X100960535Y-57149065D01*
X101015933Y-57177291D01*
X101034434Y-57202755D01*
X101052906Y-57239008D01*
X101100710Y-57304804D01*
X101178592Y-57412001D01*
X101178594Y-57412003D01*
X101329796Y-57563205D01*
X101461631Y-57658989D01*
X101498176Y-57709287D01*
X101503100Y-57740375D01*
X101503100Y-66155392D01*
X101486146Y-66211282D01*
X101429900Y-66295459D01*
X101429895Y-66295468D01*
X101361413Y-66460797D01*
X101326500Y-66636321D01*
X101326500Y-66815278D01*
X101361413Y-66990802D01*
X101429895Y-67156131D01*
X101429900Y-67156140D01*
X101529320Y-67304933D01*
X101655866Y-67431479D01*
X101804659Y-67530899D01*
X101804668Y-67530904D01*
X101969997Y-67599386D01*
X101969998Y-67599386D01*
X101970000Y-67599387D01*
X102145521Y-67634300D01*
X102145522Y-67634300D01*
X102324478Y-67634300D01*
X102324479Y-67634300D01*
X102500000Y-67599387D01*
X102665336Y-67530902D01*
X102814135Y-67431478D01*
X102940678Y-67304935D01*
X103038221Y-67158950D01*
X103087047Y-67120459D01*
X103149174Y-67118018D01*
X103200870Y-67152560D01*
X103211502Y-67169170D01*
X103238650Y-67222453D01*
X103238660Y-67222468D01*
X103383171Y-67421373D01*
X103557026Y-67595228D01*
X103755931Y-67739739D01*
X103755942Y-67739746D01*
X103974999Y-67851362D01*
X104208821Y-67927335D01*
X104208837Y-67927339D01*
X104371399Y-67953086D01*
X104371400Y-67953085D01*
X104371400Y-66748362D01*
X104420206Y-66776541D01*
X104521939Y-66803800D01*
X104627261Y-66803800D01*
X104728994Y-66776541D01*
X104777800Y-66748362D01*
X104777800Y-67953086D01*
X104940362Y-67927339D01*
X104940378Y-67927335D01*
X105174200Y-67851362D01*
X105393257Y-67739746D01*
X105393268Y-67739739D01*
X105592173Y-67595228D01*
X105766028Y-67421373D01*
X105910539Y-67222468D01*
X105910546Y-67222457D01*
X106022162Y-67003400D01*
X106098135Y-66769578D01*
X106098138Y-66769564D01*
X106123888Y-66607000D01*
X104919163Y-66607000D01*
X104947341Y-66558194D01*
X104974600Y-66456461D01*
X104974600Y-66351139D01*
X104947341Y-66249406D01*
X104919163Y-66200600D01*
X106123888Y-66200600D01*
X106123887Y-66200599D01*
X106098138Y-66038035D01*
X106098135Y-66038021D01*
X106022161Y-65804197D01*
X106022160Y-65804195D01*
X105963373Y-65688818D01*
X105953647Y-65627410D01*
X105981873Y-65572012D01*
X106037271Y-65543786D01*
X106072627Y-65544479D01*
X106107921Y-65551500D01*
X106107924Y-65551500D01*
X106286878Y-65551500D01*
X106286879Y-65551500D01*
X106462400Y-65516587D01*
X106627736Y-65448102D01*
X106701197Y-65399017D01*
X106742149Y-65371654D01*
X106798039Y-65354700D01*
X108128300Y-65354700D01*
X108187431Y-65373913D01*
X108223976Y-65424213D01*
X108228900Y-65455300D01*
X108228900Y-66988760D01*
X108211946Y-67044650D01*
X108135500Y-67159059D01*
X108135495Y-67159068D01*
X108067013Y-67324397D01*
X108047724Y-67421373D01*
X108032100Y-67499921D01*
X108032100Y-67678879D01*
X108035888Y-67697922D01*
X108067013Y-67854402D01*
X108135495Y-68019731D01*
X108135500Y-68019740D01*
X108234920Y-68168533D01*
X108361466Y-68295079D01*
X108510259Y-68394499D01*
X108510268Y-68394504D01*
X108675597Y-68462986D01*
X108675598Y-68462986D01*
X108675600Y-68462987D01*
X108851121Y-68497900D01*
X108851122Y-68497900D01*
X109030078Y-68497900D01*
X109030079Y-68497900D01*
X109205600Y-68462987D01*
X109370936Y-68394502D01*
X109519735Y-68295078D01*
X109646278Y-68168535D01*
X109745702Y-68019736D01*
X109814187Y-67854400D01*
X109849100Y-67678879D01*
X109849100Y-67499921D01*
X109814187Y-67324400D01*
X109814186Y-67324397D01*
X109745704Y-67159068D01*
X109745699Y-67159059D01*
X109669254Y-67044650D01*
X109652300Y-66988760D01*
X109652300Y-64763901D01*
X109652301Y-64763896D01*
X109652301Y-64623704D01*
X109652300Y-64623698D01*
X109652300Y-63435100D01*
X109671513Y-63375969D01*
X109721813Y-63339424D01*
X109752900Y-63334500D01*
X109941718Y-63334500D01*
X109941718Y-63334499D01*
X110152916Y-63301049D01*
X110356283Y-63234972D01*
X110546809Y-63137894D01*
X110719804Y-63012206D01*
X110871006Y-62861004D01*
X110996694Y-62688009D01*
X111015164Y-62651758D01*
X111059126Y-62607796D01*
X111120535Y-62598068D01*
X111175933Y-62626294D01*
X111194433Y-62651756D01*
X111212905Y-62688009D01*
X111244200Y-62731083D01*
X111338591Y-62861002D01*
X111338593Y-62861004D01*
X111489795Y-63012206D01*
X111662790Y-63137894D01*
X111662798Y-63137898D01*
X111853315Y-63234972D01*
X112056673Y-63301046D01*
X112056675Y-63301046D01*
X112056683Y-63301049D01*
X112267879Y-63334499D01*
X112267881Y-63334500D01*
X112267883Y-63334500D01*
X112481717Y-63334500D01*
X112481717Y-63334499D01*
X112692915Y-63301049D01*
X112896282Y-63234972D01*
X113086808Y-63137894D01*
X113259803Y-63012206D01*
X113411005Y-62861004D01*
X113536693Y-62688009D01*
X113555164Y-62651756D01*
X113599126Y-62607794D01*
X113660535Y-62598066D01*
X113715933Y-62626292D01*
X113734434Y-62651756D01*
X113752906Y-62688009D01*
X113784201Y-62731083D01*
X113878592Y-62861002D01*
X113878594Y-62861004D01*
X114029796Y-63012206D01*
X114202791Y-63137894D01*
X114202799Y-63137898D01*
X114393316Y-63234972D01*
X114596674Y-63301046D01*
X114596676Y-63301046D01*
X114596684Y-63301049D01*
X114807880Y-63334499D01*
X114807882Y-63334500D01*
X114807884Y-63334500D01*
X115021718Y-63334500D01*
X115021718Y-63334499D01*
X115232916Y-63301049D01*
X115436283Y-63234972D01*
X115626809Y-63137894D01*
X115799804Y-63012206D01*
X115951006Y-62861004D01*
X116076694Y-62688009D01*
X116173772Y-62497483D01*
X116239849Y-62294116D01*
X116273300Y-62082916D01*
X116273300Y-61869084D01*
X116239849Y-61657884D01*
X116239846Y-61657874D01*
X116173772Y-61454516D01*
X116076698Y-61263999D01*
X116076694Y-61263991D01*
X115951006Y-61090996D01*
X115799804Y-60939794D01*
X115799802Y-60939792D01*
X115679947Y-60852713D01*
X115626809Y-60814106D01*
X115626803Y-60814103D01*
X115626800Y-60814101D01*
X115436283Y-60717027D01*
X115232925Y-60650953D01*
X115232911Y-60650950D01*
X115021720Y-60617500D01*
X115021716Y-60617500D01*
X114807884Y-60617500D01*
X114741356Y-60628037D01*
X114646932Y-60642992D01*
X114585523Y-60633265D01*
X114560060Y-60614765D01*
X113616931Y-59671635D01*
X113616927Y-59671630D01*
X113514284Y-59568987D01*
X113397716Y-59491098D01*
X113397713Y-59491097D01*
X113332956Y-59464274D01*
X113268195Y-59437449D01*
X113130696Y-59410099D01*
X112990504Y-59410099D01*
X112985545Y-59410099D01*
X112985525Y-59410100D01*
X110741065Y-59410100D01*
X110718661Y-59402820D01*
X110695395Y-59399136D01*
X110689654Y-59393395D01*
X110681934Y-59390887D01*
X110668089Y-59371832D01*
X110651430Y-59355173D01*
X110650159Y-59347153D01*
X110645389Y-59340587D01*
X110645389Y-59317034D01*
X110641703Y-59293764D01*
X110645389Y-59286529D01*
X110645389Y-59278413D01*
X110669929Y-59238366D01*
X110755212Y-59153083D01*
X110755214Y-59153079D01*
X112020061Y-57888231D01*
X112075457Y-57860007D01*
X112106932Y-57860007D01*
X112186979Y-57872685D01*
X112267879Y-57885498D01*
X112267881Y-57885499D01*
X112267883Y-57885499D01*
X112481717Y-57885499D01*
X112481717Y-57885498D01*
X112692915Y-57852048D01*
X112896282Y-57785971D01*
X113086808Y-57688893D01*
X113259803Y-57563205D01*
X113411005Y-57412003D01*
X113536693Y-57239008D01*
X113555164Y-57202755D01*
X113599126Y-57158793D01*
X113660535Y-57149065D01*
X113715933Y-57177291D01*
X113734434Y-57202755D01*
X113752906Y-57239008D01*
X113800710Y-57304804D01*
X113878592Y-57412001D01*
X113878594Y-57412003D01*
X114029796Y-57563205D01*
X114202791Y-57688893D01*
X114202799Y-57688897D01*
X114393316Y-57785971D01*
X114596674Y-57852045D01*
X114596676Y-57852045D01*
X114596684Y-57852048D01*
X114807880Y-57885498D01*
X114807882Y-57885499D01*
X114807884Y-57885499D01*
X115021718Y-57885499D01*
X115021718Y-57885498D01*
X115232916Y-57852048D01*
X115436283Y-57785971D01*
X115626809Y-57688893D01*
X115799804Y-57563205D01*
X115951006Y-57412003D01*
X116076694Y-57239008D01*
X116173772Y-57048482D01*
X116239849Y-56845115D01*
X116273300Y-56633915D01*
X116273300Y-56420083D01*
X116239849Y-56208883D01*
X116239846Y-56208873D01*
X116173772Y-56005515D01*
X116076698Y-55814998D01*
X116076694Y-55814990D01*
X115951006Y-55641995D01*
X115799804Y-55490793D01*
X115799802Y-55490791D01*
X115686847Y-55408725D01*
X115626809Y-55365105D01*
X115626803Y-55365102D01*
X115626800Y-55365100D01*
X115436283Y-55268026D01*
X115232925Y-55201952D01*
X115232911Y-55201949D01*
X115021720Y-55168499D01*
X115021716Y-55168499D01*
X114807884Y-55168499D01*
X114807879Y-55168499D01*
X114596688Y-55201949D01*
X114596674Y-55201952D01*
X114393316Y-55268026D01*
X114202799Y-55365100D01*
X114202788Y-55365107D01*
X114029797Y-55490791D01*
X113878592Y-55641996D01*
X113752908Y-55814987D01*
X113752904Y-55814993D01*
X113734434Y-55851243D01*
X113690469Y-55895206D01*
X113629060Y-55904931D01*
X113573663Y-55876704D01*
X113555165Y-55851244D01*
X113536693Y-55814990D01*
X113411005Y-55641995D01*
X113259803Y-55490793D01*
X113259801Y-55490791D01*
X113146846Y-55408725D01*
X113086808Y-55365105D01*
X113086802Y-55365102D01*
X113086799Y-55365100D01*
X112896282Y-55268026D01*
X112692924Y-55201952D01*
X112692910Y-55201949D01*
X112481719Y-55168499D01*
X112481715Y-55168499D01*
X112267883Y-55168499D01*
X112267878Y-55168499D01*
X112056687Y-55201949D01*
X112056673Y-55201952D01*
X111853315Y-55268026D01*
X111662798Y-55365100D01*
X111662787Y-55365107D01*
X111489796Y-55490791D01*
X111338591Y-55641996D01*
X111212907Y-55814987D01*
X111212903Y-55814993D01*
X111194434Y-55851241D01*
X111150469Y-55895204D01*
X111089060Y-55904929D01*
X111033663Y-55876702D01*
X111015165Y-55851242D01*
X110996694Y-55814990D01*
X110871006Y-55641995D01*
X110719804Y-55490793D01*
X110719802Y-55490791D01*
X110606847Y-55408725D01*
X110546809Y-55365105D01*
X110546803Y-55365102D01*
X110546800Y-55365100D01*
X110356283Y-55268026D01*
X110152925Y-55201952D01*
X110152911Y-55201949D01*
X109941720Y-55168499D01*
X109941716Y-55168499D01*
X109727884Y-55168499D01*
X109727879Y-55168499D01*
X109516688Y-55201949D01*
X109516674Y-55201952D01*
X109313316Y-55268026D01*
X109122799Y-55365100D01*
X109122788Y-55365107D01*
X108949797Y-55490791D01*
X108817410Y-55623178D01*
X108762012Y-55651405D01*
X108700603Y-55641678D01*
X108656640Y-55597714D01*
X108649475Y-55573633D01*
X108648237Y-55573926D01*
X108646789Y-55567802D01*
X108646789Y-55567798D01*
X108632054Y-55528294D01*
X108595690Y-55430796D01*
X108595688Y-55430792D01*
X108508064Y-55313741D01*
X108508057Y-55313734D01*
X108391006Y-55226110D01*
X108391002Y-55226108D01*
X108254001Y-55175010D01*
X108193438Y-55168499D01*
X106396162Y-55168499D01*
X106335599Y-55175010D01*
X106335597Y-55175010D01*
X106198597Y-55226108D01*
X106198593Y-55226110D01*
X106081542Y-55313734D01*
X106081535Y-55313741D01*
X105993911Y-55430792D01*
X105993909Y-55430796D01*
X105942811Y-55567796D01*
X105942811Y-55567798D01*
X105936300Y-55628361D01*
X105936300Y-57425636D01*
X105942811Y-57486199D01*
X105942811Y-57486201D01*
X105993909Y-57623201D01*
X105993911Y-57623205D01*
X106081535Y-57740256D01*
X106081538Y-57740259D01*
X106081539Y-57740260D01*
X106193029Y-57823721D01*
X106201792Y-57836150D01*
X106214101Y-57845085D01*
X106219255Y-57860924D01*
X106228852Y-57874537D01*
X106228635Y-57889743D01*
X106233342Y-57904207D01*
X106228202Y-57920049D01*
X106227965Y-57936705D01*
X106218849Y-57948881D01*
X106214157Y-57963348D01*
X106202367Y-57970898D01*
X106190705Y-57986478D01*
X106163875Y-57999917D01*
X106158208Y-58001761D01*
X106091405Y-58015049D01*
X105999819Y-58052985D01*
X105996188Y-58054488D01*
X105996185Y-58054490D01*
X105961885Y-58068697D01*
X105845318Y-58146584D01*
X105845317Y-58146586D01*
X105746183Y-58245720D01*
X105560067Y-58431835D01*
X105508559Y-58459367D01*
X105373605Y-58486211D01*
X105373598Y-58486213D01*
X105208267Y-58554696D01*
X105208259Y-58554700D01*
X105059466Y-58654120D01*
X105059465Y-58654122D01*
X104932922Y-58780665D01*
X104932920Y-58780666D01*
X104833500Y-58929459D01*
X104833495Y-58929468D01*
X104765013Y-59094797D01*
X104736456Y-59238366D01*
X104730100Y-59270321D01*
X104730100Y-59449279D01*
X104738613Y-59492075D01*
X104765013Y-59624802D01*
X104833495Y-59790131D01*
X104833500Y-59790140D01*
X104932920Y-59938933D01*
X105059466Y-60065479D01*
X105208259Y-60164899D01*
X105208268Y-60164904D01*
X105373597Y-60233386D01*
X105373598Y-60233386D01*
X105373600Y-60233387D01*
X105549121Y-60268300D01*
X105549122Y-60268300D01*
X105728078Y-60268300D01*
X105728079Y-60268300D01*
X105903600Y-60233387D01*
X106068936Y-60164902D01*
X106217735Y-60065478D01*
X106344278Y-59938935D01*
X106443702Y-59790136D01*
X106512187Y-59624800D01*
X106538587Y-59492074D01*
X106568966Y-59437828D01*
X106625429Y-59411797D01*
X106637254Y-59411100D01*
X107385933Y-59411100D01*
X107445064Y-59430313D01*
X107481609Y-59480613D01*
X107481609Y-59542787D01*
X107457068Y-59582835D01*
X106741987Y-60297915D01*
X106664099Y-60414482D01*
X106664098Y-60414484D01*
X106645854Y-60458529D01*
X106645786Y-60458694D01*
X106645695Y-60458916D01*
X106610449Y-60544005D01*
X106609805Y-60547238D01*
X106606744Y-60554773D01*
X106589530Y-60575202D01*
X106574265Y-60597108D01*
X106569758Y-60598671D01*
X106566683Y-60602321D01*
X106540755Y-60608730D01*
X106515524Y-60617481D01*
X106513545Y-60617500D01*
X106396162Y-60617500D01*
X106335599Y-60624011D01*
X106335597Y-60624011D01*
X106198597Y-60675109D01*
X106198593Y-60675111D01*
X106081542Y-60762735D01*
X106081535Y-60762742D01*
X105993911Y-60879793D01*
X105993909Y-60879797D01*
X105942811Y-61016797D01*
X105942811Y-61016799D01*
X105936300Y-61077362D01*
X105936300Y-62874637D01*
X105942811Y-62935200D01*
X105942811Y-62935202D01*
X105993909Y-63072202D01*
X105993911Y-63072206D01*
X106081535Y-63189257D01*
X106081542Y-63189264D01*
X106198593Y-63276888D01*
X106198597Y-63276890D01*
X106263363Y-63301046D01*
X106335599Y-63327989D01*
X106396162Y-63334500D01*
X108128300Y-63334500D01*
X108187431Y-63353713D01*
X108223976Y-63404013D01*
X108228900Y-63435100D01*
X108228900Y-63830700D01*
X108209687Y-63889831D01*
X108159387Y-63926376D01*
X108128300Y-63931300D01*
X106798039Y-63931300D01*
X106742149Y-63914346D01*
X106627740Y-63837900D01*
X106627731Y-63837895D01*
X106462402Y-63769413D01*
X106345386Y-63746137D01*
X106286879Y-63734500D01*
X106107921Y-63734500D01*
X106064040Y-63743228D01*
X105932397Y-63769413D01*
X105767068Y-63837895D01*
X105767059Y-63837900D01*
X105618266Y-63937320D01*
X105618265Y-63937322D01*
X105491722Y-64063865D01*
X105491720Y-64063866D01*
X105392300Y-64212659D01*
X105392295Y-64212668D01*
X105323813Y-64377997D01*
X105288900Y-64553521D01*
X105288900Y-64732479D01*
X105310985Y-64843513D01*
X105303677Y-64905256D01*
X105261473Y-64950911D01*
X105200493Y-64963041D01*
X105178048Y-64957184D01*
X105177959Y-64957459D01*
X104940378Y-64880264D01*
X104940364Y-64880261D01*
X104777800Y-64854512D01*
X104777800Y-66059237D01*
X104728994Y-66031059D01*
X104627261Y-66003800D01*
X104521939Y-66003800D01*
X104420206Y-66031059D01*
X104371400Y-66059237D01*
X104371400Y-64854512D01*
X104371399Y-64854512D01*
X104208835Y-64880261D01*
X104208821Y-64880264D01*
X103974999Y-64956237D01*
X103755942Y-65067853D01*
X103755931Y-65067860D01*
X103557026Y-65212371D01*
X103383171Y-65386226D01*
X103238660Y-65585131D01*
X103238653Y-65585142D01*
X103127039Y-65804196D01*
X103122776Y-65817317D01*
X103086230Y-65867616D01*
X103027098Y-65886828D01*
X102967967Y-65867614D01*
X102931423Y-65817314D01*
X102926500Y-65786228D01*
X102926500Y-57740375D01*
X102945713Y-57681244D01*
X102967966Y-57658990D01*
X103099804Y-57563205D01*
X103251006Y-57412003D01*
X103376694Y-57239008D01*
X103473772Y-57048482D01*
X103539849Y-56845115D01*
X103573300Y-56633915D01*
X103573300Y-56420083D01*
X103539849Y-56208883D01*
X103539846Y-56208873D01*
X103473772Y-56005515D01*
X103376698Y-55814998D01*
X103376694Y-55814990D01*
X103251006Y-55641995D01*
X103099804Y-55490793D01*
X103099802Y-55490791D01*
X102986847Y-55408725D01*
X102926809Y-55365105D01*
X102926803Y-55365102D01*
X102926800Y-55365100D01*
X102736283Y-55268026D01*
X102532925Y-55201952D01*
X102532911Y-55201949D01*
X102321720Y-55168499D01*
X102321716Y-55168499D01*
X102107884Y-55168499D01*
X102107879Y-55168499D01*
X101896688Y-55201949D01*
X101896674Y-55201952D01*
X101693316Y-55268026D01*
X101502799Y-55365100D01*
X101502788Y-55365107D01*
X101329797Y-55490791D01*
X101178592Y-55641996D01*
X101052908Y-55814987D01*
X101052904Y-55814993D01*
X101034434Y-55851243D01*
X100990469Y-55895206D01*
X100929060Y-55904931D01*
X100873663Y-55876704D01*
X100855165Y-55851244D01*
X100836693Y-55814990D01*
X100711005Y-55641995D01*
X100559803Y-55490793D01*
X100559801Y-55490791D01*
X100446846Y-55408725D01*
X100386808Y-55365105D01*
X100386802Y-55365102D01*
X100386799Y-55365100D01*
X100196282Y-55268026D01*
X99992924Y-55201952D01*
X99992910Y-55201949D01*
X99781719Y-55168499D01*
X99781715Y-55168499D01*
X99567883Y-55168499D01*
X99567878Y-55168499D01*
X99356687Y-55201949D01*
X99356673Y-55201952D01*
X99153315Y-55268026D01*
X98962798Y-55365100D01*
X98962787Y-55365107D01*
X98789796Y-55490791D01*
X98638585Y-55642002D01*
X98638117Y-55642551D01*
X98637910Y-55642677D01*
X98635798Y-55644790D01*
X98635290Y-55644282D01*
X98585102Y-55675032D01*
X98523120Y-55670148D01*
X98480240Y-55636340D01*
X98364366Y-55476852D01*
X98184946Y-55297432D01*
X97979674Y-55148295D01*
X97979663Y-55148288D01*
X97753591Y-55033098D01*
X97512287Y-54954693D01*
X97512271Y-54954689D01*
X97338000Y-54927087D01*
X97338000Y-56066967D01*
X97327793Y-56061074D01*
X97200626Y-56026999D01*
X97068974Y-56026999D01*
X96941807Y-56061074D01*
X96931600Y-56066967D01*
X96931600Y-54927088D01*
X96931599Y-54927087D01*
X96757328Y-54954689D01*
X96757312Y-54954693D01*
X96516008Y-55033098D01*
X96289936Y-55148288D01*
X96289925Y-55148295D01*
X96084653Y-55297432D01*
X96001585Y-55380499D01*
X95946187Y-55408725D01*
X95884779Y-55398998D01*
X95849917Y-55369650D01*
X95808064Y-55313741D01*
X95808057Y-55313734D01*
X95691006Y-55226110D01*
X95691002Y-55226108D01*
X95554001Y-55175010D01*
X95493438Y-55168499D01*
X93696162Y-55168499D01*
X93635599Y-55175010D01*
X93635597Y-55175010D01*
X93498597Y-55226108D01*
X93498593Y-55226110D01*
X93381542Y-55313734D01*
X93381535Y-55313741D01*
X93293911Y-55430792D01*
X93293909Y-55430796D01*
X93242811Y-55567796D01*
X93242811Y-55567798D01*
X93236300Y-55628361D01*
X93236300Y-57425636D01*
X93242811Y-57486199D01*
X93242811Y-57486201D01*
X93293909Y-57623201D01*
X93293911Y-57623205D01*
X93381535Y-57740256D01*
X93381542Y-57740263D01*
X93498593Y-57827887D01*
X93498597Y-57827889D01*
X93544702Y-57845085D01*
X93635599Y-57878988D01*
X93696162Y-57885499D01*
X94767900Y-57885499D01*
X94827031Y-57904712D01*
X94863576Y-57955012D01*
X94868500Y-57986099D01*
X94868500Y-59945936D01*
X94868499Y-59945962D01*
X94868499Y-60090296D01*
X94895848Y-60227793D01*
X94912627Y-60268300D01*
X94912627Y-60268301D01*
X94949497Y-60357314D01*
X94949498Y-60357317D01*
X95027387Y-60473885D01*
X95130025Y-60576523D01*
X95130035Y-60576532D01*
X97066018Y-62512514D01*
X97094244Y-62567912D01*
X97084518Y-62629320D01*
X97040554Y-62673284D01*
X97033381Y-62676591D01*
X96927867Y-62720296D01*
X96927859Y-62720300D01*
X96813451Y-62796746D01*
X96757561Y-62813700D01*
X93742439Y-62813700D01*
X93686549Y-62796746D01*
X93572140Y-62720300D01*
X93572131Y-62720295D01*
X93406802Y-62651813D01*
X93278496Y-62626292D01*
X93231279Y-62616900D01*
X93052321Y-62616900D01*
X93008440Y-62625628D01*
X92876797Y-62651813D01*
X92711468Y-62720295D01*
X92711459Y-62720300D01*
X92562666Y-62819720D01*
X92562665Y-62819722D01*
X92436122Y-62946265D01*
X92436120Y-62946266D01*
X92336700Y-63095059D01*
X92336695Y-63095068D01*
X92268213Y-63260397D01*
X92233300Y-63435921D01*
X92233300Y-63614878D01*
X92268213Y-63790402D01*
X92336695Y-63955731D01*
X92336700Y-63955740D01*
X92436120Y-64104533D01*
X92562666Y-64231079D01*
X92711459Y-64330499D01*
X92711468Y-64330504D01*
X92876797Y-64398986D01*
X92876798Y-64398986D01*
X92876800Y-64398987D01*
X93052321Y-64433900D01*
X93052322Y-64433900D01*
X93231278Y-64433900D01*
X93231279Y-64433900D01*
X93406800Y-64398987D01*
X93572136Y-64330502D01*
X93686549Y-64254054D01*
X93742439Y-64237100D01*
X96757561Y-64237100D01*
X96813451Y-64254054D01*
X96927859Y-64330499D01*
X96927868Y-64330504D01*
X97093197Y-64398986D01*
X97093198Y-64398986D01*
X97093200Y-64398987D01*
X97268721Y-64433900D01*
X97268722Y-64433900D01*
X97447678Y-64433900D01*
X97447679Y-64433900D01*
X97623200Y-64398987D01*
X97777401Y-64335113D01*
X97781493Y-64334791D01*
X97784813Y-64332380D01*
X97812134Y-64332380D01*
X97839384Y-64330235D01*
X97842884Y-64332380D01*
X97846987Y-64332380D01*
X97869092Y-64348440D01*
X97892396Y-64362721D01*
X97893966Y-64366512D01*
X97897287Y-64368925D01*
X97905731Y-64394913D01*
X97916190Y-64420162D01*
X97916500Y-64428056D01*
X97916500Y-64509733D01*
X97897287Y-64568864D01*
X97887035Y-64580868D01*
X95027387Y-67440515D01*
X94949498Y-67557083D01*
X94949497Y-67557086D01*
X94924915Y-67616434D01*
X94924915Y-67616435D01*
X94895848Y-67686604D01*
X94868499Y-67824104D01*
X94868499Y-67969254D01*
X94868500Y-67969275D01*
X94868500Y-83305733D01*
X94849287Y-83364864D01*
X94839035Y-83376868D01*
X94570065Y-83645838D01*
X94514667Y-83674064D01*
X94453259Y-83664338D01*
X94409295Y-83620374D01*
X94398330Y-83574703D01*
X94398330Y-83535311D01*
X94398329Y-83535308D01*
X94364890Y-83324177D01*
X94364889Y-83324176D01*
X94364889Y-83324171D01*
X94364886Y-83324161D01*
X94298829Y-83120859D01*
X94201776Y-82930384D01*
X94201775Y-82930383D01*
X94076125Y-82757439D01*
X93924961Y-82606275D01*
X93752017Y-82480625D01*
X93752016Y-82480624D01*
X93561541Y-82383571D01*
X93358239Y-82317514D01*
X93358223Y-82317510D01*
X93147092Y-82284071D01*
X93147087Y-82284071D01*
X92933313Y-82284071D01*
X92933307Y-82284071D01*
X92722176Y-82317510D01*
X92722160Y-82317514D01*
X92518858Y-82383571D01*
X92328383Y-82480624D01*
X92328382Y-82480625D01*
X92155438Y-82606275D01*
X92004274Y-82757439D01*
X91878624Y-82930383D01*
X91878623Y-82930384D01*
X91781570Y-83120859D01*
X91715513Y-83324161D01*
X91715509Y-83324177D01*
X91682070Y-83535308D01*
X78829400Y-83535308D01*
X78829400Y-80973634D01*
X83161700Y-80973634D01*
X83161700Y-81230765D01*
X83201920Y-81484705D01*
X83201924Y-81484721D01*
X83281375Y-81729246D01*
X83398101Y-81958332D01*
X83398106Y-81958341D01*
X83469284Y-82056309D01*
X83549234Y-82166352D01*
X83731047Y-82348165D01*
X83731189Y-82348268D01*
X83939059Y-82499294D01*
X83939067Y-82499298D01*
X84168153Y-82616024D01*
X84412678Y-82695475D01*
X84412681Y-82695475D01*
X84412688Y-82695478D01*
X84412693Y-82695478D01*
X84412694Y-82695479D01*
X84666634Y-82735699D01*
X84666639Y-82735700D01*
X84666641Y-82735700D01*
X86173761Y-82735700D01*
X86173765Y-82735699D01*
X86427712Y-82695478D01*
X86672246Y-82616024D01*
X86901341Y-82499294D01*
X87109354Y-82348164D01*
X87291164Y-82166354D01*
X87442294Y-81958341D01*
X87559024Y-81729246D01*
X87638478Y-81484712D01*
X87678700Y-81230759D01*
X87678700Y-80973641D01*
X87638478Y-80719688D01*
X87638475Y-80719678D01*
X87559024Y-80475153D01*
X87442298Y-80246067D01*
X87442294Y-80246059D01*
X87291164Y-80038046D01*
X87109354Y-79856236D01*
X87109352Y-79856234D01*
X86997541Y-79774999D01*
X86901341Y-79705106D01*
X86901335Y-79705103D01*
X86901332Y-79705101D01*
X86672246Y-79588375D01*
X86427721Y-79508924D01*
X86427705Y-79508920D01*
X86173765Y-79468700D01*
X86173759Y-79468700D01*
X84666641Y-79468700D01*
X84666634Y-79468700D01*
X84412694Y-79508920D01*
X84412678Y-79508924D01*
X84168153Y-79588375D01*
X83939067Y-79705101D01*
X83939056Y-79705108D01*
X83731047Y-79856234D01*
X83549234Y-80038047D01*
X83398108Y-80246056D01*
X83398101Y-80246067D01*
X83281375Y-80475153D01*
X83201924Y-80719678D01*
X83201920Y-80719694D01*
X83161700Y-80973634D01*
X78829400Y-80973634D01*
X78829400Y-73861634D01*
X83161700Y-73861634D01*
X83161700Y-74118765D01*
X83201920Y-74372705D01*
X83201924Y-74372721D01*
X83281375Y-74617246D01*
X83398101Y-74846332D01*
X83398106Y-74846341D01*
X83424483Y-74882646D01*
X83549234Y-75054352D01*
X83549236Y-75054354D01*
X83731046Y-75236164D01*
X83939059Y-75387294D01*
X83939067Y-75387298D01*
X84168153Y-75504024D01*
X84412678Y-75583475D01*
X84412681Y-75583475D01*
X84412688Y-75583478D01*
X84412693Y-75583478D01*
X84412694Y-75583479D01*
X84666634Y-75623699D01*
X84666639Y-75623700D01*
X84666641Y-75623700D01*
X86005534Y-75623700D01*
X86064665Y-75642913D01*
X86076669Y-75653165D01*
X89943863Y-79520358D01*
X89943884Y-79520381D01*
X89947386Y-79523883D01*
X90046517Y-79623014D01*
X90163083Y-79700901D01*
X90189908Y-79712011D01*
X90227845Y-79727726D01*
X90227846Y-79727726D01*
X90292605Y-79754551D01*
X90430104Y-79781901D01*
X90430105Y-79781901D01*
X90575255Y-79781901D01*
X90575275Y-79781900D01*
X90618628Y-79781900D01*
X90677759Y-79801113D01*
X90700015Y-79823369D01*
X90772130Y-79922628D01*
X90772132Y-79922630D01*
X90917770Y-80068268D01*
X91084397Y-80189329D01*
X91084405Y-80189333D01*
X91267909Y-80282834D01*
X91463782Y-80346477D01*
X91463784Y-80346477D01*
X91463792Y-80346480D01*
X91667214Y-80378699D01*
X91667216Y-80378700D01*
X91667219Y-80378700D01*
X91873184Y-80378700D01*
X91873184Y-80378699D01*
X92076608Y-80346480D01*
X92272490Y-80282834D01*
X92456003Y-80189329D01*
X92622630Y-80068268D01*
X92768268Y-79922630D01*
X92889329Y-79756003D01*
X92899249Y-79736535D01*
X92982834Y-79572490D01*
X93003488Y-79508924D01*
X93046480Y-79376608D01*
X93078700Y-79173181D01*
X93078700Y-78967219D01*
X93078700Y-78967215D01*
X93078699Y-78967214D01*
X93069289Y-78907800D01*
X93046480Y-78763792D01*
X93016070Y-78670200D01*
X92982834Y-78567909D01*
X92889333Y-78384405D01*
X92889329Y-78384397D01*
X92768268Y-78217770D01*
X92622630Y-78072132D01*
X92622628Y-78072130D01*
X92506997Y-77988120D01*
X92456003Y-77951071D01*
X92455997Y-77951068D01*
X92455994Y-77951066D01*
X92272490Y-77857565D01*
X92076617Y-77793922D01*
X92076603Y-77793919D01*
X91873185Y-77761700D01*
X91873181Y-77761700D01*
X91667219Y-77761700D01*
X91667215Y-77761700D01*
X91463796Y-77793919D01*
X91463782Y-77793922D01*
X91267909Y-77857565D01*
X91084405Y-77951066D01*
X91084394Y-77951073D01*
X90917771Y-78072130D01*
X90784333Y-78205568D01*
X90728935Y-78233795D01*
X90667526Y-78224068D01*
X90642063Y-78205568D01*
X87435948Y-74999452D01*
X87407722Y-74944054D01*
X87417448Y-74882646D01*
X87425691Y-74869191D01*
X87442294Y-74846341D01*
X87559024Y-74617246D01*
X87566053Y-74595614D01*
X90468500Y-74595614D01*
X90468500Y-74801585D01*
X90500719Y-75005003D01*
X90500722Y-75005017D01*
X90564365Y-75200890D01*
X90657866Y-75384394D01*
X90657871Y-75384403D01*
X90718401Y-75467716D01*
X90778930Y-75551028D01*
X90778932Y-75551030D01*
X90924570Y-75696668D01*
X91091197Y-75817729D01*
X91091205Y-75817733D01*
X91274709Y-75911234D01*
X91470582Y-75974877D01*
X91470584Y-75974877D01*
X91470592Y-75974880D01*
X91674014Y-76007099D01*
X91674016Y-76007100D01*
X91674019Y-76007100D01*
X91879984Y-76007100D01*
X91879984Y-76007099D01*
X92083408Y-75974880D01*
X92279290Y-75911234D01*
X92462803Y-75817729D01*
X92629430Y-75696668D01*
X92775068Y-75551030D01*
X92896129Y-75384403D01*
X92989634Y-75200890D01*
X93053280Y-75005008D01*
X93085500Y-74801581D01*
X93085500Y-74595619D01*
X93085500Y-74595615D01*
X93085499Y-74595614D01*
X93079950Y-74560577D01*
X93053280Y-74392192D01*
X93053277Y-74392182D01*
X92989634Y-74196309D01*
X92896133Y-74012805D01*
X92896129Y-74012797D01*
X92775068Y-73846170D01*
X92629430Y-73700532D01*
X92629428Y-73700530D01*
X92546116Y-73640001D01*
X92462803Y-73579471D01*
X92462797Y-73579468D01*
X92462794Y-73579466D01*
X92279290Y-73485965D01*
X92083417Y-73422322D01*
X92083403Y-73422319D01*
X91879985Y-73390100D01*
X91879981Y-73390100D01*
X91674019Y-73390100D01*
X91674015Y-73390100D01*
X91470596Y-73422319D01*
X91470582Y-73422322D01*
X91274709Y-73485965D01*
X91091205Y-73579466D01*
X91091194Y-73579473D01*
X90924571Y-73700530D01*
X90778930Y-73846171D01*
X90657873Y-74012794D01*
X90657866Y-74012805D01*
X90564365Y-74196309D01*
X90500722Y-74392182D01*
X90500719Y-74392196D01*
X90468500Y-74595614D01*
X87566053Y-74595614D01*
X87638478Y-74372712D01*
X87678700Y-74118759D01*
X87678700Y-73861641D01*
X87638478Y-73607688D01*
X87638475Y-73607678D01*
X87559024Y-73363153D01*
X87442298Y-73134067D01*
X87442294Y-73134059D01*
X87291164Y-72926046D01*
X87109354Y-72744236D01*
X87109352Y-72744234D01*
X87005347Y-72668671D01*
X86901341Y-72593106D01*
X86901335Y-72593103D01*
X86901332Y-72593101D01*
X86672246Y-72476375D01*
X86427721Y-72396924D01*
X86427705Y-72396920D01*
X86173765Y-72356700D01*
X86173759Y-72356700D01*
X84666641Y-72356700D01*
X84666634Y-72356700D01*
X84412694Y-72396920D01*
X84412678Y-72396924D01*
X84168153Y-72476375D01*
X83939067Y-72593101D01*
X83939056Y-72593108D01*
X83731047Y-72744234D01*
X83549234Y-72926047D01*
X83398108Y-73134056D01*
X83398101Y-73134067D01*
X83281375Y-73363153D01*
X83201924Y-73607678D01*
X83201920Y-73607694D01*
X83161700Y-73861634D01*
X78829400Y-73861634D01*
X78829400Y-69162634D01*
X83161700Y-69162634D01*
X83161700Y-69419765D01*
X83201920Y-69673705D01*
X83201924Y-69673721D01*
X83281375Y-69918246D01*
X83386111Y-70123800D01*
X83398106Y-70147341D01*
X83405876Y-70158035D01*
X83549234Y-70355352D01*
X83549236Y-70355354D01*
X83731046Y-70537164D01*
X83939059Y-70688294D01*
X83939067Y-70688298D01*
X84168153Y-70805024D01*
X84412678Y-70884475D01*
X84412681Y-70884475D01*
X84412688Y-70884478D01*
X84412693Y-70884478D01*
X84412694Y-70884479D01*
X84666634Y-70924699D01*
X84666639Y-70924700D01*
X84666641Y-70924700D01*
X86173761Y-70924700D01*
X86173765Y-70924699D01*
X86179441Y-70923800D01*
X86427712Y-70884478D01*
X86672246Y-70805024D01*
X86901341Y-70688294D01*
X87109354Y-70537164D01*
X87291164Y-70355354D01*
X87316415Y-70320599D01*
X90243712Y-70320599D01*
X90243712Y-70320600D01*
X91448437Y-70320600D01*
X91420259Y-70369406D01*
X91393000Y-70471139D01*
X91393000Y-70576461D01*
X91420259Y-70678194D01*
X91448437Y-70727000D01*
X90243712Y-70727000D01*
X90269461Y-70889564D01*
X90269464Y-70889578D01*
X90345437Y-71123400D01*
X90457053Y-71342457D01*
X90457060Y-71342468D01*
X90601571Y-71541373D01*
X90775426Y-71715228D01*
X90974331Y-71859739D01*
X90974342Y-71859746D01*
X91193399Y-71971362D01*
X91427221Y-72047335D01*
X91427237Y-72047339D01*
X91589799Y-72073086D01*
X91589800Y-72073085D01*
X91589800Y-70868362D01*
X91638606Y-70896541D01*
X91740339Y-70923800D01*
X91845661Y-70923800D01*
X91947394Y-70896541D01*
X91996200Y-70868362D01*
X91996200Y-72073086D01*
X92158762Y-72047339D01*
X92158778Y-72047335D01*
X92392600Y-71971362D01*
X92611657Y-71859746D01*
X92611668Y-71859739D01*
X92810573Y-71715228D01*
X92984428Y-71541373D01*
X93128939Y-71342468D01*
X93128946Y-71342457D01*
X93240562Y-71123400D01*
X93316535Y-70889578D01*
X93316538Y-70889564D01*
X93342288Y-70727000D01*
X92137563Y-70727000D01*
X92165741Y-70678194D01*
X92193000Y-70576461D01*
X92193000Y-70471139D01*
X92165741Y-70369406D01*
X92137563Y-70320600D01*
X93342288Y-70320600D01*
X93342287Y-70320599D01*
X93316538Y-70158035D01*
X93316535Y-70158021D01*
X93240562Y-69924199D01*
X93128946Y-69705142D01*
X93128939Y-69705131D01*
X92984428Y-69506226D01*
X92810573Y-69332371D01*
X92611668Y-69187860D01*
X92611657Y-69187853D01*
X92392600Y-69076237D01*
X92158778Y-69000264D01*
X92158764Y-69000261D01*
X91996200Y-68974512D01*
X91996200Y-70179237D01*
X91947394Y-70151059D01*
X91845661Y-70123800D01*
X91740339Y-70123800D01*
X91638606Y-70151059D01*
X91589800Y-70179237D01*
X91589800Y-68974512D01*
X91589799Y-68974512D01*
X91427235Y-69000261D01*
X91427221Y-69000264D01*
X91193399Y-69076237D01*
X90974342Y-69187853D01*
X90974331Y-69187860D01*
X90775426Y-69332371D01*
X90601571Y-69506226D01*
X90457060Y-69705131D01*
X90457053Y-69705142D01*
X90345437Y-69924199D01*
X90269464Y-70158021D01*
X90269461Y-70158035D01*
X90243712Y-70320599D01*
X87316415Y-70320599D01*
X87442294Y-70147341D01*
X87559024Y-69918246D01*
X87638478Y-69673712D01*
X87678700Y-69419759D01*
X87678700Y-69162641D01*
X87648903Y-68974512D01*
X87638479Y-68908694D01*
X87638478Y-68908693D01*
X87638478Y-68908688D01*
X87559024Y-68664154D01*
X87559024Y-68664153D01*
X87442298Y-68435067D01*
X87442294Y-68435059D01*
X87291164Y-68227046D01*
X87109354Y-68045236D01*
X87109352Y-68045234D01*
X86947082Y-67927339D01*
X86901341Y-67894106D01*
X86901335Y-67894103D01*
X86901332Y-67894101D01*
X86672246Y-67777375D01*
X86427721Y-67697924D01*
X86427705Y-67697920D01*
X86173765Y-67657700D01*
X86173759Y-67657700D01*
X84666641Y-67657700D01*
X84666634Y-67657700D01*
X84412694Y-67697920D01*
X84412678Y-67697924D01*
X84168153Y-67777375D01*
X83939067Y-67894101D01*
X83939056Y-67894108D01*
X83731047Y-68045234D01*
X83549234Y-68227047D01*
X83398108Y-68435056D01*
X83398101Y-68435067D01*
X83281375Y-68664153D01*
X83201924Y-68908678D01*
X83201920Y-68908694D01*
X83161700Y-69162634D01*
X78829400Y-69162634D01*
X78829400Y-64463634D01*
X83161700Y-64463634D01*
X83161700Y-64720765D01*
X83201920Y-64974705D01*
X83201924Y-64974721D01*
X83281375Y-65219246D01*
X83397984Y-65448102D01*
X83398106Y-65448341D01*
X83424483Y-65484646D01*
X83549234Y-65656352D01*
X83731047Y-65838165D01*
X83771583Y-65867616D01*
X83939059Y-65989294D01*
X83939067Y-65989298D01*
X84168153Y-66106024D01*
X84412678Y-66185475D01*
X84412681Y-66185475D01*
X84412688Y-66185478D01*
X84412693Y-66185478D01*
X84412694Y-66185479D01*
X84666634Y-66225699D01*
X84666639Y-66225700D01*
X84666641Y-66225700D01*
X86005534Y-66225700D01*
X86064665Y-66244913D01*
X86076669Y-66255165D01*
X86678983Y-66857479D01*
X86678986Y-66857483D01*
X86778117Y-66956614D01*
X86894683Y-67034501D01*
X87024205Y-67088150D01*
X87161704Y-67115501D01*
X87161705Y-67115501D01*
X87306855Y-67115501D01*
X87306875Y-67115500D01*
X90723028Y-67115500D01*
X90782159Y-67134713D01*
X90804415Y-67156969D01*
X90876530Y-67256228D01*
X90876532Y-67256230D01*
X91022170Y-67401868D01*
X91188797Y-67522929D01*
X91188805Y-67522933D01*
X91372309Y-67616434D01*
X91568182Y-67680077D01*
X91568184Y-67680077D01*
X91568192Y-67680080D01*
X91771614Y-67712299D01*
X91771616Y-67712300D01*
X91771619Y-67712300D01*
X91977584Y-67712300D01*
X91977584Y-67712299D01*
X92181008Y-67680080D01*
X92376890Y-67616434D01*
X92560403Y-67522929D01*
X92727030Y-67401868D01*
X92872668Y-67256230D01*
X92993729Y-67089603D01*
X93087234Y-66906090D01*
X93150880Y-66710208D01*
X93183100Y-66506781D01*
X93183100Y-66300819D01*
X93183100Y-66300815D01*
X93183099Y-66300814D01*
X93171202Y-66225699D01*
X93150880Y-66097392D01*
X93087234Y-65901510D01*
X93087234Y-65901509D01*
X92993733Y-65718005D01*
X92993729Y-65717997D01*
X92887665Y-65572012D01*
X92872669Y-65551371D01*
X92727028Y-65405730D01*
X92643716Y-65345201D01*
X92560403Y-65284671D01*
X92560397Y-65284668D01*
X92560394Y-65284666D01*
X92376890Y-65191165D01*
X92181017Y-65127522D01*
X92181003Y-65127519D01*
X91977585Y-65095300D01*
X91977581Y-65095300D01*
X91771619Y-65095300D01*
X91771615Y-65095300D01*
X91568196Y-65127519D01*
X91568182Y-65127522D01*
X91372309Y-65191165D01*
X91188805Y-65284666D01*
X91188794Y-65284673D01*
X91022171Y-65405730D01*
X90876530Y-65551371D01*
X90804415Y-65650631D01*
X90754116Y-65687176D01*
X90723028Y-65692100D01*
X87568266Y-65692100D01*
X87560545Y-65689591D01*
X87552529Y-65690861D01*
X87531540Y-65680166D01*
X87509135Y-65672887D01*
X87497131Y-65662635D01*
X87435948Y-65601452D01*
X87407722Y-65546054D01*
X87417448Y-65484646D01*
X87425691Y-65471191D01*
X87442294Y-65448341D01*
X87559024Y-65219246D01*
X87638478Y-64974712D01*
X87678700Y-64720759D01*
X87678700Y-64463641D01*
X87658343Y-64335114D01*
X87638479Y-64209694D01*
X87638478Y-64209693D01*
X87638478Y-64209688D01*
X87559024Y-63965154D01*
X87559024Y-63965153D01*
X87442298Y-63736067D01*
X87442294Y-63736059D01*
X87291164Y-63528046D01*
X87109354Y-63346236D01*
X87109352Y-63346234D01*
X86991211Y-63260400D01*
X86901341Y-63195106D01*
X86901335Y-63195103D01*
X86901332Y-63195101D01*
X86672246Y-63078375D01*
X86427721Y-62998924D01*
X86427705Y-62998920D01*
X86173765Y-62958700D01*
X86173759Y-62958700D01*
X84666641Y-62958700D01*
X84666634Y-62958700D01*
X84412694Y-62998920D01*
X84412678Y-62998924D01*
X84168153Y-63078375D01*
X83939067Y-63195101D01*
X83939056Y-63195108D01*
X83731047Y-63346234D01*
X83549234Y-63528047D01*
X83398108Y-63736056D01*
X83398101Y-63736067D01*
X83281375Y-63965153D01*
X83201924Y-64209678D01*
X83201920Y-64209694D01*
X83161700Y-64463634D01*
X78829400Y-64463634D01*
X78829400Y-54292000D01*
X78848613Y-54232869D01*
X78898913Y-54196324D01*
X78930000Y-54191400D01*
X120866400Y-54191400D01*
X120925531Y-54210613D01*
G37*
%TD.AperFunction*%
%TD*%
M02*
