M48
; DRILL file {KiCad 9.0.6} date 2026-02-14T22:36:09-0700
; FORMAT={-:-/ absolute / metric / decimal}
; #@! TF.CreationDate,2026-02-14T22:36:09-07:00
; #@! TF.GenerationSoftware,Kicad,Pcbnew,9.0.6
; #@! TF.FileFunction,Plated,1,2,PTH
FMAT,2
METRIC
; #@! TA.AperFunction,Plated,PTH,ViaDrill
T1C0.400
; #@! TA.AperFunction,Plated,PTH,ComponentDrill
T2C0.800
; #@! TA.AperFunction,Plated,PTH,ComponentDrill
T3C1.000
; #@! TA.AperFunction,Plated,PTH,ComponentDrill
T4C1.250
%
G90
G05
T1
X93.142Y-63.525
X97.358Y-63.525
X97.866Y-82.779
X97.968Y-85.623
X102.235Y-66.726
X105.639Y-59.36
X106.197Y-64.643
X108.941Y-67.589
T2
X91.77Y-79.07
X91.777Y-74.699
X91.793Y-70.524
X91.875Y-66.404
X104.47Y-79.07
X104.477Y-74.699
X104.493Y-70.524
X104.575Y-66.404
X106.917Y-82.559
X106.917Y-90.179
X108.3Y-78.308
X109.457Y-82.559
X109.457Y-90.179
X110.8Y-78.308
X111.997Y-90.179
X111.997Y-82.559
X114.537Y-82.559
X114.537Y-90.179
X114.899Y-78.213
X117.399Y-78.213
T3
X93.04Y-83.642
X93.04Y-88.722
X94.595Y-56.527
X97.135Y-56.527
X99.675Y-56.527
X102.215Y-56.527
X107.295Y-56.527
X107.295Y-61.976
X109.835Y-56.527
X109.835Y-61.976
X112.375Y-56.527
X112.375Y-61.976
X114.915Y-56.527
X114.915Y-61.976
T4
X86.045Y-64.592G85X84.795Y-64.592
G05
X86.045Y-69.291G85X84.795Y-69.291
G05
X86.045Y-73.99G85X84.795Y-73.99
G05
X86.045Y-81.102G85X84.795Y-81.102
G05
X86.045Y-85.801G85X84.795Y-85.801
G05
X86.045Y-90.5G85X84.795Y-90.5
G05
M30
