%TF.GenerationSoftware,KiCad,Pcbnew,9.0.6*%
%TF.CreationDate,2026-02-14T22:35:57-07:00*%
%TF.ProjectId,FET_Matching,4645545f-4d61-4746-9368-696e672e6b69,rev?*%
%TF.SameCoordinates,Original*%
%TF.FileFunction,Legend,Bot*%
%TF.FilePolarity,Positive*%
%FSLAX46Y46*%
G04 Gerber Fmt 4.6, Leading zero omitted, Abs format (unit mm)*
G04 Created by KiCad (PCBNEW 9.0.6) date 2026-02-14 22:35:57*
%MOMM*%
%LPD*%
G01*
G04 APERTURE LIST*
%ADD10C,0.254000*%
%ADD11C,0.150000*%
%ADD12C,0.152400*%
%ADD13C,0.127000*%
G04 APERTURE END LIST*
D10*
X97783761Y-93548901D02*
X97058047Y-94274615D01*
X97058047Y-93548901D02*
X97783761Y-94274615D01*
X94578523Y-93790806D02*
X94638999Y-93730330D01*
X94638999Y-93730330D02*
X94759952Y-93669853D01*
X94759952Y-93669853D02*
X94880904Y-93669853D01*
X94880904Y-93669853D02*
X95001856Y-93730330D01*
X95001856Y-93730330D02*
X95062333Y-93790806D01*
X95062333Y-93790806D02*
X95122809Y-93911758D01*
X95122809Y-93911758D02*
X95122809Y-94032711D01*
X95122809Y-94032711D02*
X95062333Y-94153663D01*
X95062333Y-94153663D02*
X95001856Y-94214139D01*
X95001856Y-94214139D02*
X94880904Y-94274615D01*
X94880904Y-94274615D02*
X94759952Y-94274615D01*
X94759952Y-94274615D02*
X94638999Y-94214139D01*
X94638999Y-94214139D02*
X94578523Y-94153663D01*
X94578523Y-93669853D02*
X94578523Y-94153663D01*
X94578523Y-94153663D02*
X94518047Y-94214139D01*
X94518047Y-94214139D02*
X94457571Y-94214139D01*
X94457571Y-94214139D02*
X94336618Y-94153663D01*
X94336618Y-94153663D02*
X94276142Y-94032711D01*
X94276142Y-94032711D02*
X94276142Y-93730330D01*
X94276142Y-93730330D02*
X94397095Y-93548901D01*
X94397095Y-93548901D02*
X94578523Y-93427949D01*
X94578523Y-93427949D02*
X94820428Y-93367472D01*
X94820428Y-93367472D02*
X95062333Y-93427949D01*
X95062333Y-93427949D02*
X95243761Y-93548901D01*
X95243761Y-93548901D02*
X95364714Y-93730330D01*
X95364714Y-93730330D02*
X95425190Y-93972234D01*
X95425190Y-93972234D02*
X95364714Y-94214139D01*
X95364714Y-94214139D02*
X95243761Y-94395568D01*
X95243761Y-94395568D02*
X95062333Y-94516520D01*
X95062333Y-94516520D02*
X94820428Y-94576996D01*
X94820428Y-94576996D02*
X94578523Y-94516520D01*
X94578523Y-94516520D02*
X94397095Y-94395568D01*
X93187571Y-93548901D02*
X93187571Y-94576996D01*
X93187571Y-94576996D02*
X93248047Y-94697949D01*
X93248047Y-94697949D02*
X93308523Y-94758425D01*
X93308523Y-94758425D02*
X93429476Y-94818901D01*
X93429476Y-94818901D02*
X93610904Y-94818901D01*
X93610904Y-94818901D02*
X93731857Y-94758425D01*
X93187571Y-94335092D02*
X93308523Y-94395568D01*
X93308523Y-94395568D02*
X93550428Y-94395568D01*
X93550428Y-94395568D02*
X93671380Y-94335092D01*
X93671380Y-94335092D02*
X93731857Y-94274615D01*
X93731857Y-94274615D02*
X93792333Y-94153663D01*
X93792333Y-94153663D02*
X93792333Y-93790806D01*
X93792333Y-93790806D02*
X93731857Y-93669853D01*
X93731857Y-93669853D02*
X93671380Y-93609377D01*
X93671380Y-93609377D02*
X93550428Y-93548901D01*
X93550428Y-93548901D02*
X93308523Y-93548901D01*
X93308523Y-93548901D02*
X93187571Y-93609377D01*
X92038523Y-94395568D02*
X92038523Y-93730330D01*
X92038523Y-93730330D02*
X92098999Y-93609377D01*
X92098999Y-93609377D02*
X92219951Y-93548901D01*
X92219951Y-93548901D02*
X92461856Y-93548901D01*
X92461856Y-93548901D02*
X92582809Y-93609377D01*
X92038523Y-94335092D02*
X92159475Y-94395568D01*
X92159475Y-94395568D02*
X92461856Y-94395568D01*
X92461856Y-94395568D02*
X92582809Y-94335092D01*
X92582809Y-94335092D02*
X92643285Y-94214139D01*
X92643285Y-94214139D02*
X92643285Y-94093187D01*
X92643285Y-94093187D02*
X92582809Y-93972234D01*
X92582809Y-93972234D02*
X92461856Y-93911758D01*
X92461856Y-93911758D02*
X92159475Y-93911758D01*
X92159475Y-93911758D02*
X92038523Y-93851282D01*
X90889475Y-94395568D02*
X90889475Y-93125568D01*
X90889475Y-94335092D02*
X91010427Y-94395568D01*
X91010427Y-94395568D02*
X91252332Y-94395568D01*
X91252332Y-94395568D02*
X91373284Y-94335092D01*
X91373284Y-94335092D02*
X91433761Y-94274615D01*
X91433761Y-94274615D02*
X91494237Y-94153663D01*
X91494237Y-94153663D02*
X91494237Y-93790806D01*
X91494237Y-93790806D02*
X91433761Y-93669853D01*
X91433761Y-93669853D02*
X91373284Y-93609377D01*
X91373284Y-93609377D02*
X91252332Y-93548901D01*
X91252332Y-93548901D02*
X91010427Y-93548901D01*
X91010427Y-93548901D02*
X90889475Y-93609377D01*
X89740427Y-93548901D02*
X89740427Y-94576996D01*
X89740427Y-94576996D02*
X89800903Y-94697949D01*
X89800903Y-94697949D02*
X89861379Y-94758425D01*
X89861379Y-94758425D02*
X89982332Y-94818901D01*
X89982332Y-94818901D02*
X90163760Y-94818901D01*
X90163760Y-94818901D02*
X90284713Y-94758425D01*
X89740427Y-94335092D02*
X89861379Y-94395568D01*
X89861379Y-94395568D02*
X90103284Y-94395568D01*
X90103284Y-94395568D02*
X90224236Y-94335092D01*
X90224236Y-94335092D02*
X90284713Y-94274615D01*
X90284713Y-94274615D02*
X90345189Y-94153663D01*
X90345189Y-94153663D02*
X90345189Y-93790806D01*
X90345189Y-93790806D02*
X90284713Y-93669853D01*
X90284713Y-93669853D02*
X90224236Y-93609377D01*
X90224236Y-93609377D02*
X90103284Y-93548901D01*
X90103284Y-93548901D02*
X89861379Y-93548901D01*
X89861379Y-93548901D02*
X89740427Y-93609377D01*
X88651855Y-94335092D02*
X88772807Y-94395568D01*
X88772807Y-94395568D02*
X89014712Y-94395568D01*
X89014712Y-94395568D02*
X89135665Y-94335092D01*
X89135665Y-94335092D02*
X89196141Y-94214139D01*
X89196141Y-94214139D02*
X89196141Y-93730330D01*
X89196141Y-93730330D02*
X89135665Y-93609377D01*
X89135665Y-93609377D02*
X89014712Y-93548901D01*
X89014712Y-93548901D02*
X88772807Y-93548901D01*
X88772807Y-93548901D02*
X88651855Y-93609377D01*
X88651855Y-93609377D02*
X88591379Y-93730330D01*
X88591379Y-93730330D02*
X88591379Y-93851282D01*
X88591379Y-93851282D02*
X89196141Y-93972234D01*
X88228522Y-93548901D02*
X87744713Y-93548901D01*
X88047094Y-93125568D02*
X88047094Y-94214139D01*
X88047094Y-94214139D02*
X87986617Y-94335092D01*
X87986617Y-94335092D02*
X87865665Y-94395568D01*
X87865665Y-94395568D02*
X87744713Y-94395568D01*
X87321380Y-94395568D02*
X87321380Y-93548901D01*
X87321380Y-93790806D02*
X87260903Y-93669853D01*
X87260903Y-93669853D02*
X87200427Y-93609377D01*
X87200427Y-93609377D02*
X87079475Y-93548901D01*
X87079475Y-93548901D02*
X86958522Y-93548901D01*
X86051380Y-94335092D02*
X86172332Y-94395568D01*
X86172332Y-94395568D02*
X86414237Y-94395568D01*
X86414237Y-94395568D02*
X86535190Y-94335092D01*
X86535190Y-94335092D02*
X86595666Y-94214139D01*
X86595666Y-94214139D02*
X86595666Y-93730330D01*
X86595666Y-93730330D02*
X86535190Y-93609377D01*
X86535190Y-93609377D02*
X86414237Y-93548901D01*
X86414237Y-93548901D02*
X86172332Y-93548901D01*
X86172332Y-93548901D02*
X86051380Y-93609377D01*
X86051380Y-93609377D02*
X85990904Y-93730330D01*
X85990904Y-93730330D02*
X85990904Y-93851282D01*
X85990904Y-93851282D02*
X86595666Y-93972234D01*
X85446619Y-94395568D02*
X85446619Y-93125568D01*
X85446619Y-93609377D02*
X85325666Y-93548901D01*
X85325666Y-93548901D02*
X85083761Y-93548901D01*
X85083761Y-93548901D02*
X84962809Y-93609377D01*
X84962809Y-93609377D02*
X84902333Y-93669853D01*
X84902333Y-93669853D02*
X84841857Y-93790806D01*
X84841857Y-93790806D02*
X84841857Y-94153663D01*
X84841857Y-94153663D02*
X84902333Y-94274615D01*
X84902333Y-94274615D02*
X84962809Y-94335092D01*
X84962809Y-94335092D02*
X85083761Y-94395568D01*
X85083761Y-94395568D02*
X85325666Y-94395568D01*
X85325666Y-94395568D02*
X85446619Y-94335092D01*
X84116142Y-94395568D02*
X84237094Y-94335092D01*
X84237094Y-94335092D02*
X84297571Y-94274615D01*
X84297571Y-94274615D02*
X84358047Y-94153663D01*
X84358047Y-94153663D02*
X84358047Y-93790806D01*
X84358047Y-93790806D02*
X84297571Y-93669853D01*
X84297571Y-93669853D02*
X84237094Y-93609377D01*
X84237094Y-93609377D02*
X84116142Y-93548901D01*
X84116142Y-93548901D02*
X83934713Y-93548901D01*
X83934713Y-93548901D02*
X83813761Y-93609377D01*
X83813761Y-93609377D02*
X83753285Y-93669853D01*
X83753285Y-93669853D02*
X83692809Y-93790806D01*
X83692809Y-93790806D02*
X83692809Y-94153663D01*
X83692809Y-94153663D02*
X83753285Y-94274615D01*
X83753285Y-94274615D02*
X83813761Y-94335092D01*
X83813761Y-94335092D02*
X83934713Y-94395568D01*
X83934713Y-94395568D02*
X84116142Y-94395568D01*
X82967094Y-94395568D02*
X83088046Y-94335092D01*
X83088046Y-94335092D02*
X83148523Y-94274615D01*
X83148523Y-94274615D02*
X83208999Y-94153663D01*
X83208999Y-94153663D02*
X83208999Y-93790806D01*
X83208999Y-93790806D02*
X83148523Y-93669853D01*
X83148523Y-93669853D02*
X83088046Y-93609377D01*
X83088046Y-93609377D02*
X82967094Y-93548901D01*
X82967094Y-93548901D02*
X82785665Y-93548901D01*
X82785665Y-93548901D02*
X82664713Y-93609377D01*
X82664713Y-93609377D02*
X82604237Y-93669853D01*
X82604237Y-93669853D02*
X82543761Y-93790806D01*
X82543761Y-93790806D02*
X82543761Y-94153663D01*
X82543761Y-94153663D02*
X82604237Y-94274615D01*
X82604237Y-94274615D02*
X82664713Y-94335092D01*
X82664713Y-94335092D02*
X82785665Y-94395568D01*
X82785665Y-94395568D02*
X82967094Y-94395568D01*
X82180903Y-93548901D02*
X81697094Y-93548901D01*
X81999475Y-93125568D02*
X81999475Y-94214139D01*
X81999475Y-94214139D02*
X81938998Y-94335092D01*
X81938998Y-94335092D02*
X81818046Y-94395568D01*
X81818046Y-94395568D02*
X81697094Y-94395568D01*
D11*
X107660849Y-84019161D02*
X107203706Y-84476304D01*
X107203706Y-84019161D02*
X107660849Y-84476304D01*
G36*
X117769696Y-92297624D02*
G01*
X118063520Y-92317709D01*
X118087356Y-92330390D01*
X118097641Y-92380057D01*
X118085078Y-92417900D01*
X118074384Y-92429791D01*
X118062279Y-92430307D01*
X117886247Y-92426895D01*
X117875856Y-92426895D01*
X117797111Y-92441820D01*
X117755348Y-92480558D01*
X117732001Y-92553960D01*
X117721227Y-92713044D01*
X117721227Y-94368985D01*
X117733554Y-94452155D01*
X117762017Y-94487942D01*
X117814116Y-94503844D01*
X117933086Y-94511361D01*
X117997373Y-94521654D01*
X118031001Y-94547313D01*
X118043978Y-94588908D01*
X118032656Y-94635281D01*
X118010983Y-94650492D01*
X117964415Y-94656995D01*
X117514952Y-94650481D01*
X116977240Y-94660252D01*
X116971812Y-94660252D01*
X116950231Y-94652809D01*
X116934124Y-94627837D01*
X116926964Y-94593593D01*
X116930557Y-94557114D01*
X116947482Y-94525723D01*
X116972898Y-94511361D01*
X117096818Y-94511361D01*
X117122874Y-94511361D01*
X117252204Y-94499759D01*
X117314105Y-94473828D01*
X117340678Y-94441642D01*
X117359273Y-94385429D01*
X117365906Y-94293454D01*
X117365906Y-93744420D01*
X117359237Y-93709369D01*
X117349776Y-93680677D01*
X117336438Y-93670130D01*
X117157460Y-93687501D01*
X116948122Y-93673466D01*
X116773129Y-93634186D01*
X116626756Y-93572654D01*
X116504358Y-93490066D01*
X116401531Y-93383266D01*
X116328479Y-93260207D01*
X116283454Y-93117655D01*
X116267684Y-92950803D01*
X116268828Y-92940257D01*
X116654024Y-92940257D01*
X116670470Y-93128081D01*
X116715734Y-93276369D01*
X116786319Y-93393442D01*
X116858142Y-93463667D01*
X116945830Y-93514691D01*
X117052706Y-93546926D01*
X117183515Y-93558462D01*
X117319533Y-93542953D01*
X117354665Y-93523264D01*
X117365906Y-93488515D01*
X117365906Y-92482729D01*
X117356082Y-92421647D01*
X117335508Y-92405802D01*
X117200886Y-92397117D01*
X117031691Y-92415145D01*
X116894265Y-92465824D01*
X116792123Y-92539518D01*
X116718423Y-92638741D01*
X116671287Y-92769168D01*
X116654024Y-92940257D01*
X116268828Y-92940257D01*
X116283064Y-92809024D01*
X116328253Y-92680917D01*
X116404167Y-92563068D01*
X116504175Y-92464231D01*
X116625782Y-92388178D01*
X116772826Y-92334459D01*
X116967790Y-92300972D01*
X117246018Y-92287931D01*
X117769696Y-92297624D01*
G37*
G36*
X116064356Y-94533384D02*
G01*
X115986343Y-94512447D01*
X115909806Y-94500150D01*
X115863265Y-94477656D01*
X115837143Y-94447307D01*
X115816878Y-94368515D01*
X115806744Y-94165501D01*
X115806744Y-92534841D01*
X115810311Y-92398978D01*
X115819543Y-92356484D01*
X115845915Y-92328204D01*
X115894527Y-92311505D01*
X115966491Y-92302044D01*
X116040316Y-92292428D01*
X116058409Y-92279844D01*
X116068853Y-92241712D01*
X116063154Y-92202531D01*
X116041402Y-92183397D01*
X115863602Y-92118995D01*
X115586355Y-92033421D01*
X115565883Y-92029854D01*
X115534554Y-92041641D01*
X115521470Y-92066125D01*
X115515787Y-92116396D01*
X115515787Y-93212447D01*
X115504310Y-93256339D01*
X115491290Y-93271870D01*
X115479806Y-93271383D01*
X115340058Y-93196789D01*
X115229949Y-93150254D01*
X115117292Y-93121979D01*
X114979317Y-93111791D01*
X114860879Y-93123336D01*
X114768131Y-93155157D01*
X114695401Y-93205208D01*
X114639105Y-93274497D01*
X114598250Y-93366921D01*
X114569196Y-93505629D01*
X114552807Y-93762721D01*
X114559787Y-94005134D01*
X114566611Y-94172635D01*
X114573590Y-94406983D01*
X114562699Y-94463159D01*
X114534817Y-94490889D01*
X114483241Y-94503142D01*
X114354752Y-94509190D01*
X114321933Y-94513935D01*
X114308379Y-94524699D01*
X114295971Y-94584410D01*
X114294265Y-94603952D01*
X114302539Y-94637475D01*
X114323578Y-94646913D01*
X114606315Y-94648619D01*
X114764201Y-94648619D01*
X115079973Y-94646913D01*
X115115006Y-94639420D01*
X115134727Y-94619037D01*
X115142165Y-94581774D01*
X115136053Y-94533371D01*
X115107579Y-94521287D01*
X115086952Y-94521287D01*
X114975249Y-94511033D01*
X114922862Y-94488252D01*
X114891809Y-94444210D01*
X114871681Y-94355491D01*
X114853803Y-94132603D01*
X114847331Y-93864618D01*
X114853180Y-93646148D01*
X114866253Y-93535353D01*
X114894422Y-93448834D01*
X114938062Y-93381810D01*
X114998797Y-93331318D01*
X115069943Y-93301005D01*
X115154728Y-93290460D01*
X115221120Y-93296267D01*
X115288574Y-93314034D01*
X115384888Y-93353118D01*
X115500743Y-93423065D01*
X115511640Y-93435396D01*
X115515787Y-93457496D01*
X115515787Y-94317338D01*
X115504255Y-94438022D01*
X115479961Y-94486701D01*
X115432533Y-94510543D01*
X115328123Y-94521287D01*
X115283839Y-94530708D01*
X115269343Y-94553547D01*
X115265931Y-94600075D01*
X115281285Y-94638538D01*
X115307341Y-94650326D01*
X115314475Y-94650326D01*
X115448942Y-94648619D01*
X115670882Y-94650326D01*
X115895768Y-94652032D01*
X116039696Y-94650326D01*
X116043108Y-94650326D01*
X116067923Y-94631249D01*
X116077539Y-94586737D01*
X116064356Y-94533384D01*
G37*
G36*
X114196711Y-94589218D02*
G01*
X114198417Y-94569366D01*
X114189081Y-94533174D01*
X114164452Y-94521287D01*
X114117613Y-94516014D01*
X113985810Y-94493138D01*
X113939875Y-94461576D01*
X113921932Y-94395220D01*
X113912268Y-94191712D01*
X113912268Y-93555516D01*
X113917202Y-93438025D01*
X113926072Y-93402282D01*
X113947844Y-93384089D01*
X114003774Y-93366145D01*
X114149718Y-93326286D01*
X114164715Y-93315224D01*
X114173292Y-93281619D01*
X114169595Y-93245957D01*
X114155766Y-93228577D01*
X113724760Y-93079221D01*
X113688623Y-93072087D01*
X113655906Y-93081413D01*
X113634516Y-93110054D01*
X113624724Y-93168866D01*
X113624724Y-94191712D01*
X113621157Y-94375188D01*
X113609506Y-94457469D01*
X113589983Y-94488717D01*
X113551265Y-94502385D01*
X113450088Y-94509190D01*
X113430982Y-94507338D01*
X113407592Y-94517720D01*
X113379985Y-94553392D01*
X113381691Y-94569677D01*
X113383397Y-94588443D01*
X113397749Y-94635414D01*
X113438766Y-94650326D01*
X113858606Y-94645207D01*
X114160264Y-94650326D01*
X114181580Y-94638434D01*
X114196711Y-94589218D01*
G37*
G36*
X113959262Y-92592536D02*
G01*
X113999165Y-92533350D01*
X114012769Y-92459310D01*
X113998489Y-92384978D01*
X113955850Y-92323447D01*
X113892619Y-92282093D01*
X113815335Y-92268078D01*
X113734686Y-92281796D01*
X113669701Y-92321741D01*
X113625709Y-92382398D01*
X113610765Y-92459310D01*
X113626301Y-92532870D01*
X113673113Y-92592691D01*
X113740394Y-92632042D01*
X113818747Y-92645268D01*
X113898713Y-92631578D01*
X113959262Y-92592536D01*
G37*
G36*
X111886738Y-92025511D02*
G01*
X112333720Y-92178899D01*
X112358648Y-92188934D01*
X112372183Y-92211779D01*
X112368616Y-92261254D01*
X112358029Y-92276355D01*
X112326585Y-92287775D01*
X112262842Y-92293204D01*
X112187311Y-92299252D01*
X112135664Y-92316778D01*
X112110384Y-92369045D01*
X112105111Y-92801447D01*
X112110384Y-93107448D01*
X112121085Y-93155838D01*
X112142178Y-93166849D01*
X112308495Y-93124296D01*
X112438563Y-93111791D01*
X112606023Y-93127357D01*
X112755324Y-93172565D01*
X112890140Y-93247058D01*
X113013032Y-93352962D01*
X113113519Y-93480194D01*
X113184814Y-93620134D01*
X113228329Y-93775375D01*
X113243347Y-93949455D01*
X113231949Y-94099952D01*
X113198879Y-94235691D01*
X113144893Y-94359149D01*
X113069486Y-94472277D01*
X112974418Y-94570299D01*
X112873343Y-94637124D01*
X112764504Y-94676643D01*
X112644994Y-94690030D01*
X112526882Y-94671553D01*
X112364011Y-94605324D01*
X112140782Y-94470416D01*
X112129408Y-94468113D01*
X112119224Y-94478481D01*
X112110384Y-94518185D01*
X112110384Y-94547653D01*
X112113796Y-94594802D01*
X112107437Y-94641175D01*
X112083708Y-94677932D01*
X112064797Y-94684681D01*
X112039661Y-94679328D01*
X111799564Y-94605137D01*
X111558404Y-94500970D01*
X111542494Y-94485452D01*
X111536535Y-94456768D01*
X111545376Y-94406362D01*
X111559179Y-94381237D01*
X111583374Y-94372397D01*
X111606638Y-94374413D01*
X111631143Y-94382013D01*
X111649754Y-94387596D01*
X111727146Y-94410240D01*
X111777636Y-94401888D01*
X111802212Y-94381392D01*
X111813333Y-94338556D01*
X111819272Y-94210013D01*
X111819272Y-93526513D01*
X112113796Y-93526513D01*
X112113796Y-94257627D01*
X112127125Y-94314038D01*
X112146056Y-94335639D01*
X112295703Y-94423054D01*
X112415824Y-94468245D01*
X112513164Y-94481583D01*
X112600855Y-94470566D01*
X112680494Y-94437880D01*
X112754547Y-94381890D01*
X112824283Y-94298262D01*
X112891598Y-94170474D01*
X112933847Y-94019179D01*
X112948823Y-93839028D01*
X112934250Y-93670169D01*
X112893630Y-93532711D01*
X112829556Y-93420428D01*
X112740402Y-93330722D01*
X112637705Y-93278535D01*
X112516576Y-93260681D01*
X112417460Y-93275122D01*
X112319138Y-93319917D01*
X112218534Y-93400589D01*
X112113796Y-93526513D01*
X111819272Y-93526513D01*
X111819272Y-92093908D01*
X111823528Y-92055858D01*
X111834316Y-92032025D01*
X111862388Y-92019928D01*
X111886738Y-92025511D01*
G37*
G36*
X110785321Y-93116655D02*
G01*
X110934902Y-93159490D01*
X111069424Y-93229692D01*
X111191451Y-93328768D01*
X111292124Y-93449285D01*
X111363394Y-93582626D01*
X111406887Y-93731421D01*
X111421921Y-93899359D01*
X111406770Y-94064547D01*
X111362825Y-94211518D01*
X111290554Y-94343891D01*
X111188039Y-94464212D01*
X111064382Y-94562724D01*
X110928147Y-94632619D01*
X110776771Y-94675294D01*
X110606746Y-94690030D01*
X110440486Y-94675234D01*
X110291750Y-94632265D01*
X110157120Y-94561609D01*
X110034138Y-94461576D01*
X109931842Y-94339982D01*
X109860077Y-94208060D01*
X109816686Y-94063478D01*
X109809669Y-93987763D01*
X110127504Y-93987763D01*
X110142412Y-94147518D01*
X110184507Y-94280625D01*
X110252045Y-94392404D01*
X110344056Y-94482049D01*
X110446382Y-94533640D01*
X110563319Y-94551065D01*
X110667273Y-94537954D01*
X110763725Y-94498717D01*
X110855438Y-94430979D01*
X110943920Y-94329281D01*
X111012147Y-94215199D01*
X111061743Y-94088273D01*
X111092507Y-93946339D01*
X111103202Y-93786761D01*
X111088399Y-93632915D01*
X111046457Y-93504063D01*
X110978817Y-93395148D01*
X110887121Y-93308190D01*
X110784734Y-93257878D01*
X110667387Y-93240829D01*
X110565102Y-93253758D01*
X110469446Y-93292575D01*
X110377741Y-93359787D01*
X110288492Y-93460908D01*
X110219027Y-93574436D01*
X110168956Y-93698754D01*
X110138145Y-93835752D01*
X110127504Y-93987763D01*
X109809669Y-93987763D01*
X109801807Y-93902927D01*
X109801807Y-93892535D01*
X109816764Y-93730241D01*
X109860275Y-93584869D01*
X109932055Y-93452987D01*
X110034138Y-93332180D01*
X110158894Y-93231473D01*
X110295799Y-93160221D01*
X110447382Y-93116824D01*
X110617137Y-93101865D01*
X110785321Y-93116655D01*
G37*
G36*
X108678459Y-94069963D02*
G01*
X108672948Y-94052532D01*
X108655505Y-94041271D01*
X108604014Y-94035532D01*
X108566636Y-94050421D01*
X108508763Y-94203451D01*
X108456985Y-94302915D01*
X108391349Y-94385098D01*
X108301115Y-94459249D01*
X108198915Y-94517407D01*
X108101053Y-94550347D01*
X108005506Y-94560991D01*
X107875880Y-94547482D01*
X107770343Y-94509511D01*
X107683685Y-94448393D01*
X107616594Y-94366793D01*
X107576647Y-94273264D01*
X107562867Y-94163950D01*
X107571397Y-94070118D01*
X107606603Y-93979853D01*
X107653131Y-93902306D01*
X107720287Y-93826155D01*
X107789304Y-93760395D01*
X107872435Y-93697117D01*
X107950447Y-93641438D01*
X108034353Y-93584208D01*
X108108643Y-93536439D01*
X108313212Y-93391581D01*
X108482265Y-93241295D01*
X108564123Y-93145178D01*
X108618438Y-93045876D01*
X108650322Y-92937931D01*
X108661244Y-92818508D01*
X108649779Y-92697989D01*
X108616684Y-92592308D01*
X108562400Y-92498482D01*
X108485367Y-92414487D01*
X108393414Y-92347745D01*
X108287808Y-92299171D01*
X108166007Y-92268819D01*
X108024737Y-92258152D01*
X107902755Y-92271521D01*
X107728197Y-92319570D01*
X107597763Y-92350589D01*
X107578003Y-92344402D01*
X107543015Y-92318174D01*
X107494934Y-92311055D01*
X107455076Y-92318794D01*
X107434472Y-92419063D01*
X107386369Y-92807961D01*
X107400283Y-92837523D01*
X107436620Y-92848751D01*
X107476335Y-92843215D01*
X107491368Y-92829209D01*
X107574060Y-92659075D01*
X107664878Y-92539285D01*
X107763267Y-92459475D01*
X107870939Y-92412890D01*
X107991702Y-92397117D01*
X108098046Y-92407859D01*
X108181660Y-92437571D01*
X108247608Y-92484590D01*
X108297691Y-92547935D01*
X108328218Y-92623791D01*
X108338958Y-92715835D01*
X108319734Y-92822604D01*
X108257106Y-92937384D01*
X108137646Y-93065418D01*
X108038875Y-93147072D01*
X107869798Y-93267971D01*
X107564107Y-93484017D01*
X107449262Y-93588387D01*
X107339376Y-93729841D01*
X107281919Y-93836123D01*
X107248329Y-93944210D01*
X107237169Y-94056005D01*
X107250395Y-94195096D01*
X107288663Y-94317739D01*
X107351565Y-94427265D01*
X107440963Y-94525940D01*
X107547522Y-94604560D01*
X107669825Y-94661692D01*
X107810821Y-94697354D01*
X107974332Y-94709882D01*
X108108145Y-94695111D01*
X108345317Y-94636832D01*
X108449695Y-94613258D01*
X108473524Y-94620166D01*
X108500566Y-94644742D01*
X108544927Y-94653806D01*
X108599361Y-94650015D01*
X108636357Y-94465470D01*
X108678459Y-94069963D01*
G37*
G36*
X106338460Y-93116655D02*
G01*
X106488041Y-93159490D01*
X106622563Y-93229692D01*
X106744590Y-93328768D01*
X106845263Y-93449285D01*
X106916533Y-93582626D01*
X106960026Y-93731421D01*
X106975060Y-93899359D01*
X106959909Y-94064547D01*
X106915964Y-94211518D01*
X106843693Y-94343891D01*
X106741178Y-94464212D01*
X106617521Y-94562724D01*
X106481285Y-94632619D01*
X106329910Y-94675294D01*
X106159884Y-94690030D01*
X105993625Y-94675234D01*
X105844889Y-94632265D01*
X105710259Y-94561609D01*
X105587277Y-94461576D01*
X105484981Y-94339982D01*
X105413216Y-94208060D01*
X105369825Y-94063478D01*
X105362808Y-93987763D01*
X105680643Y-93987763D01*
X105695551Y-94147518D01*
X105737645Y-94280625D01*
X105805184Y-94392404D01*
X105897195Y-94482049D01*
X105999521Y-94533640D01*
X106116458Y-94551065D01*
X106220412Y-94537954D01*
X106316864Y-94498717D01*
X106408576Y-94430979D01*
X106497059Y-94329281D01*
X106565286Y-94215199D01*
X106614882Y-94088273D01*
X106645646Y-93946339D01*
X106656341Y-93786761D01*
X106641538Y-93632915D01*
X106599595Y-93504063D01*
X106531955Y-93395148D01*
X106440260Y-93308190D01*
X106337873Y-93257878D01*
X106220526Y-93240829D01*
X106118241Y-93253758D01*
X106022585Y-93292575D01*
X105930880Y-93359787D01*
X105841631Y-93460908D01*
X105772166Y-93574436D01*
X105722095Y-93698754D01*
X105691284Y-93835752D01*
X105680643Y-93987763D01*
X105362808Y-93987763D01*
X105354945Y-93902927D01*
X105354945Y-93892535D01*
X105369902Y-93730241D01*
X105413414Y-93584869D01*
X105485194Y-93452987D01*
X105587277Y-93332180D01*
X105712033Y-93231473D01*
X105848938Y-93160221D01*
X106000521Y-93116824D01*
X106170276Y-93101865D01*
X106338460Y-93116655D01*
G37*
G36*
X105230250Y-93211361D02*
G01*
X105230250Y-93200815D01*
X105223427Y-93174786D01*
X105204039Y-93161266D01*
X105000090Y-93112101D01*
X104759384Y-93055647D01*
X104731869Y-93058669D01*
X104712545Y-93074568D01*
X104696415Y-93128076D01*
X104696415Y-93977527D01*
X104686737Y-94167968D01*
X104663072Y-94286786D01*
X104631741Y-94355802D01*
X104580612Y-94406144D01*
X104503158Y-94439183D01*
X104389019Y-94451805D01*
X104279406Y-94435407D01*
X104149962Y-94380665D01*
X103994149Y-94275618D01*
X103991047Y-94266622D01*
X103984378Y-94241187D01*
X103980966Y-94211099D01*
X103980966Y-93598632D01*
X103991202Y-93390495D01*
X104014629Y-93333821D01*
X104048762Y-93299193D01*
X104095115Y-93281774D01*
X104141178Y-93273244D01*
X104173283Y-93266265D01*
X104290224Y-93248894D01*
X104307127Y-93228134D01*
X104311472Y-93194146D01*
X104302149Y-93161984D01*
X104282779Y-93147463D01*
X103945942Y-93077814D01*
X103773450Y-93052235D01*
X103759181Y-93052235D01*
X103712382Y-93067469D01*
X103696988Y-93112566D01*
X103696988Y-94240412D01*
X103696988Y-94349443D01*
X103687443Y-94397037D01*
X103662089Y-94423121D01*
X103616960Y-94432728D01*
X103551045Y-94422647D01*
X103528246Y-94415668D01*
X103500329Y-94408689D01*
X103475979Y-94401710D01*
X103455024Y-94404566D01*
X103440618Y-94427455D01*
X103435034Y-94460180D01*
X103438601Y-94489493D01*
X103451313Y-94517661D01*
X103469930Y-94526871D01*
X103669199Y-94602393D01*
X103875657Y-94655909D01*
X103915648Y-94664532D01*
X103947155Y-94660872D01*
X103969528Y-94643200D01*
X103980966Y-94601936D01*
X103987945Y-94460335D01*
X103993839Y-94426059D01*
X104005936Y-94410550D01*
X104187862Y-94538348D01*
X104258373Y-94578879D01*
X104364049Y-94625666D01*
X104476459Y-94659486D01*
X104579940Y-94670178D01*
X104705746Y-94656026D01*
X104802820Y-94616954D01*
X104878011Y-94554566D01*
X104934812Y-94465745D01*
X104972733Y-94343217D01*
X104987372Y-94176513D01*
X104987372Y-93425702D01*
X104991294Y-93370426D01*
X105000555Y-93339159D01*
X105020298Y-93317036D01*
X105061817Y-93298990D01*
X105132075Y-93279138D01*
X105204194Y-93259130D01*
X105219545Y-93246435D01*
X105230250Y-93211361D01*
G37*
G36*
X103346475Y-94565954D02*
G01*
X103332525Y-94535688D01*
X103310183Y-94528266D01*
X103289556Y-94528266D01*
X103211327Y-94519418D01*
X103160759Y-94496663D01*
X103129499Y-94462351D01*
X103103939Y-94375338D01*
X103091501Y-94163330D01*
X103091501Y-93675248D01*
X103096761Y-93442193D01*
X103104994Y-93389255D01*
X103133754Y-93366042D01*
X103240236Y-93334506D01*
X103311424Y-93320548D01*
X103325871Y-93307288D01*
X103332672Y-93263163D01*
X103326123Y-93217965D01*
X103311734Y-93201280D01*
X103105304Y-93134900D01*
X102891429Y-93065418D01*
X102861031Y-93062161D01*
X102829617Y-93069586D01*
X102811168Y-93090574D01*
X102803956Y-93130557D01*
X102803956Y-93322719D01*
X102793565Y-93350481D01*
X102782294Y-93363280D01*
X102773713Y-93362268D01*
X102608562Y-93246899D01*
X102477793Y-93176310D01*
X102331884Y-93125955D01*
X102225920Y-93111791D01*
X102110365Y-93127660D01*
X102017970Y-93172765D01*
X101942944Y-93248250D01*
X101883627Y-93361408D01*
X101842806Y-93524480D01*
X101827173Y-93753416D01*
X101841131Y-94073220D01*
X101854934Y-94397677D01*
X101846578Y-94468332D01*
X101827948Y-94499264D01*
X101789354Y-94513901D01*
X101684331Y-94521287D01*
X101652416Y-94513208D01*
X101621363Y-94534470D01*
X101610196Y-94581309D01*
X101613763Y-94614189D01*
X101625860Y-94643812D01*
X101661997Y-94650326D01*
X101672389Y-94650326D01*
X102007392Y-94648619D01*
X102161711Y-94648619D01*
X102347359Y-94650326D01*
X102395283Y-94638383D01*
X102409706Y-94586892D01*
X102399041Y-94533265D01*
X102375120Y-94521287D01*
X102351081Y-94521287D01*
X102245892Y-94501578D01*
X102192109Y-94472432D01*
X102159634Y-94422503D01*
X102138912Y-94326024D01*
X102124252Y-94092619D01*
X102118129Y-93699598D01*
X102131879Y-93539408D01*
X102167064Y-93432701D01*
X102218010Y-93364299D01*
X102284470Y-93324377D01*
X102371708Y-93310312D01*
X102476665Y-93327998D01*
X102616606Y-93390737D01*
X102803956Y-93517983D01*
X102803956Y-94319510D01*
X102791993Y-94438708D01*
X102766578Y-94487166D01*
X102715364Y-94510328D01*
X102591942Y-94521287D01*
X102570960Y-94533642D01*
X102555805Y-94586272D01*
X102569889Y-94635852D01*
X102609158Y-94653738D01*
X102735249Y-94652032D01*
X102947573Y-94653738D01*
X103098635Y-94655444D01*
X103289711Y-94650170D01*
X103329364Y-94643672D01*
X103342753Y-94629233D01*
X103350043Y-94593716D01*
X103346475Y-94565954D01*
G37*
G36*
X100134319Y-92025511D02*
G01*
X100581301Y-92178899D01*
X100606230Y-92188934D01*
X100619764Y-92211779D01*
X100616197Y-92261254D01*
X100605610Y-92276355D01*
X100574167Y-92287775D01*
X100510423Y-92293204D01*
X100434892Y-92299252D01*
X100383246Y-92316778D01*
X100357965Y-92369045D01*
X100352692Y-92801447D01*
X100357965Y-93107448D01*
X100368667Y-93155838D01*
X100389760Y-93166849D01*
X100556076Y-93124296D01*
X100686145Y-93111791D01*
X100853604Y-93127357D01*
X101002905Y-93172565D01*
X101137721Y-93247058D01*
X101260613Y-93352962D01*
X101361100Y-93480194D01*
X101432395Y-93620134D01*
X101475911Y-93775375D01*
X101490928Y-93949455D01*
X101479530Y-94099952D01*
X101446461Y-94235691D01*
X101392475Y-94359149D01*
X101317068Y-94472277D01*
X101221999Y-94570299D01*
X101120925Y-94637124D01*
X101012085Y-94676643D01*
X100892575Y-94690030D01*
X100774464Y-94671553D01*
X100611592Y-94605324D01*
X100388364Y-94470416D01*
X100376989Y-94468113D01*
X100366806Y-94478481D01*
X100357965Y-94518185D01*
X100357965Y-94547653D01*
X100361377Y-94594802D01*
X100355018Y-94641175D01*
X100331289Y-94677932D01*
X100312379Y-94684681D01*
X100287242Y-94679328D01*
X100047146Y-94605137D01*
X99805985Y-94500970D01*
X99790075Y-94485452D01*
X99784117Y-94456768D01*
X99792957Y-94406362D01*
X99806760Y-94381237D01*
X99830955Y-94372397D01*
X99854219Y-94374413D01*
X99878724Y-94382013D01*
X99897335Y-94387596D01*
X99974727Y-94410240D01*
X100025218Y-94401888D01*
X100049793Y-94381392D01*
X100060914Y-94338556D01*
X100066853Y-94210013D01*
X100066853Y-93526513D01*
X100361377Y-93526513D01*
X100361377Y-94257627D01*
X100374706Y-94314038D01*
X100393637Y-94335639D01*
X100543284Y-94423054D01*
X100663406Y-94468245D01*
X100760745Y-94481583D01*
X100848437Y-94470566D01*
X100928075Y-94437880D01*
X101002128Y-94381890D01*
X101071864Y-94298262D01*
X101139179Y-94170474D01*
X101181429Y-94019179D01*
X101196404Y-93839028D01*
X101181831Y-93670169D01*
X101141211Y-93532711D01*
X101077137Y-93420428D01*
X100987983Y-93330722D01*
X100885286Y-93278535D01*
X100764157Y-93260681D01*
X100665041Y-93275122D01*
X100566720Y-93319917D01*
X100466115Y-93400589D01*
X100361377Y-93526513D01*
X100066853Y-93526513D01*
X100066853Y-92093908D01*
X100071109Y-92055858D01*
X100081898Y-92032025D01*
X100109970Y-92019928D01*
X100134319Y-92025511D01*
G37*
G36*
X90292334Y-58934350D02*
G01*
X89956517Y-58934350D01*
X89956517Y-58152675D01*
X89698052Y-58152675D01*
X89551240Y-58145214D01*
X89415509Y-58123478D01*
X89288602Y-58084534D01*
X89182286Y-58029258D01*
X89092846Y-57954051D01*
X89023741Y-57858034D01*
X88992253Y-57784984D01*
X88972243Y-57698273D01*
X88965116Y-57595150D01*
X89303609Y-57595150D01*
X89312939Y-57674348D01*
X89338272Y-57732524D01*
X89378673Y-57779496D01*
X89431562Y-57815694D01*
X89493078Y-57841073D01*
X89564865Y-57857918D01*
X89722014Y-57869783D01*
X89956517Y-57869783D01*
X89956517Y-57333777D01*
X89711313Y-57333777D01*
X89560794Y-57343083D01*
X89490390Y-57357580D01*
X89430282Y-57381352D01*
X89378415Y-57416126D01*
X89338272Y-57461846D01*
X89312899Y-57518588D01*
X89303609Y-57595150D01*
X88965116Y-57595150D01*
X88971234Y-57498861D01*
X88988521Y-57416402D01*
X89015832Y-57345642D01*
X89077171Y-57251255D01*
X89159720Y-57175698D01*
X89260074Y-57119522D01*
X89383521Y-57080082D01*
X89518428Y-57058557D01*
X89676649Y-57050885D01*
X90292334Y-57050885D01*
X90292334Y-58934350D01*
G37*
G36*
X87703618Y-57444166D02*
G01*
X87765887Y-57382145D01*
X87854137Y-57328310D01*
X87952805Y-57293072D01*
X88050021Y-57281666D01*
X88167272Y-57296322D01*
X88223631Y-57315036D01*
X88273938Y-57341454D01*
X88317458Y-57376510D01*
X88352571Y-57421134D01*
X88375169Y-57473902D01*
X88383164Y-57539316D01*
X88376174Y-57599766D01*
X88356526Y-57648308D01*
X88325223Y-57689771D01*
X88283244Y-57725313D01*
X88233261Y-57754383D01*
X88169948Y-57781147D01*
X88023384Y-57828838D01*
X87835526Y-57895257D01*
X87741933Y-57938592D01*
X87656974Y-57993548D01*
X87583377Y-58062171D01*
X87523670Y-58147673D01*
X87495758Y-58211655D01*
X87478005Y-58287830D01*
X87471675Y-58378686D01*
X87478305Y-58478391D01*
X87497260Y-58565909D01*
X87527625Y-58643083D01*
X87593400Y-58746931D01*
X87676865Y-58830359D01*
X87776933Y-58894760D01*
X87895431Y-58941794D01*
X88023108Y-58969577D01*
X88159363Y-58979017D01*
X88280754Y-58971573D01*
X88400401Y-58949234D01*
X88519142Y-58911667D01*
X88630937Y-58858536D01*
X88726228Y-58792070D01*
X88806920Y-58711944D01*
X88567067Y-58488260D01*
X88516325Y-58547160D01*
X88455013Y-58597693D01*
X88381884Y-58640175D01*
X88264945Y-58682621D01*
X88154012Y-58696125D01*
X88034085Y-58681468D01*
X87975481Y-58661677D01*
X87923464Y-58632148D01*
X87878822Y-58593176D01*
X87843552Y-58545606D01*
X87821010Y-58489322D01*
X87812843Y-58416374D01*
X87821992Y-58346366D01*
X87847507Y-58292492D01*
X87887403Y-58247212D01*
X87940796Y-58207229D01*
X88002943Y-58174356D01*
X88079450Y-58144532D01*
X88247301Y-58088582D01*
X88417827Y-58024722D01*
X88498935Y-57981297D01*
X88571138Y-57926082D01*
X88632233Y-57858516D01*
X88681759Y-57775563D01*
X88712856Y-57679521D01*
X88724332Y-57553042D01*
X88717228Y-57458686D01*
X88696958Y-57376792D01*
X88664427Y-57305279D01*
X88594984Y-57210176D01*
X88507161Y-57133357D01*
X88404213Y-57074569D01*
X88285919Y-57032158D01*
X88160979Y-57007114D01*
X88034085Y-56998774D01*
X87890681Y-57011307D01*
X87742237Y-57049955D01*
X87647103Y-57090166D01*
X87561709Y-57141268D01*
X87485052Y-57203498D01*
X87703618Y-57444166D01*
G37*
G36*
X86680113Y-57928757D02*
G01*
X87266485Y-57050885D01*
X86861340Y-57050885D01*
X86472248Y-57694720D01*
X86088390Y-57050885D01*
X85701972Y-57050885D01*
X86277643Y-57936784D01*
X85600773Y-58934350D01*
X86024530Y-58934350D01*
X86485508Y-58189897D01*
X86927992Y-58934350D01*
X87333021Y-58934350D01*
X86680113Y-57928757D01*
G37*
G36*
X84879832Y-57006785D02*
G01*
X84974321Y-57030028D01*
X85060231Y-57067985D01*
X85138597Y-57120067D01*
X85208590Y-57185291D01*
X85270772Y-57264915D01*
X85321410Y-57352988D01*
X85364702Y-57456096D01*
X85400004Y-57576306D01*
X85432427Y-57766163D01*
X85443973Y-57988895D01*
X85432427Y-58211627D01*
X85400004Y-58401485D01*
X85364702Y-58521694D01*
X85321410Y-58624802D01*
X85270772Y-58712875D01*
X85208590Y-58792500D01*
X85138597Y-58857723D01*
X85060231Y-58909806D01*
X84974321Y-58947762D01*
X84879832Y-58971005D01*
X84775013Y-58979017D01*
X84670208Y-58970982D01*
X84576210Y-58947719D01*
X84491191Y-58909806D01*
X84413781Y-58857761D01*
X84344674Y-58792548D01*
X84283326Y-58712875D01*
X84233423Y-58624890D01*
X84190554Y-58521785D01*
X84155373Y-58401485D01*
X84122950Y-58211627D01*
X84111543Y-57991571D01*
X84439195Y-57991571D01*
X84451176Y-58215372D01*
X84469444Y-58337933D01*
X84499217Y-58449874D01*
X84543658Y-58552259D01*
X84601812Y-58635056D01*
X84650551Y-58677174D01*
X84707418Y-58702302D01*
X84775013Y-58711014D01*
X84844464Y-58702224D01*
X84902200Y-58677022D01*
X84951006Y-58635056D01*
X85009095Y-58552271D01*
X85053601Y-58449874D01*
X85083624Y-58337958D01*
X85102921Y-58215372D01*
X85116182Y-57991571D01*
X85102921Y-57767770D01*
X85083693Y-57644831D01*
X85053601Y-57530592D01*
X85008949Y-57425903D01*
X84951006Y-57342734D01*
X84902200Y-57300769D01*
X84844464Y-57275567D01*
X84775013Y-57266777D01*
X84707418Y-57275489D01*
X84650551Y-57300616D01*
X84601812Y-57342734D01*
X84543804Y-57425915D01*
X84499217Y-57530592D01*
X84469376Y-57644854D01*
X84451176Y-57767770D01*
X84439195Y-57991571D01*
X84111543Y-57991571D01*
X84111404Y-57988895D01*
X84122950Y-57766163D01*
X84155373Y-57576306D01*
X84190554Y-57456006D01*
X84233423Y-57352900D01*
X84283326Y-57264915D01*
X84344674Y-57185242D01*
X84413781Y-57120030D01*
X84491191Y-57067985D01*
X84576210Y-57030072D01*
X84670208Y-57006809D01*
X84775013Y-56998774D01*
X84879832Y-57006785D01*
G37*
G36*
X83220388Y-57439280D02*
G01*
X83593428Y-57745785D01*
X83780006Y-57524659D01*
X83191075Y-57050885D01*
X82900506Y-57050885D01*
X82900506Y-58934350D01*
X83220388Y-58934350D01*
X83220388Y-57439280D01*
G37*
G36*
X82281331Y-58258410D02*
G01*
X82281331Y-58539790D01*
X81409857Y-58539790D01*
X81409857Y-58934350D01*
X81095326Y-58934350D01*
X81095326Y-58539790D01*
X80831510Y-58539790D01*
X80831510Y-58271787D01*
X81095326Y-58271787D01*
X81409857Y-58271787D01*
X81950864Y-58271787D01*
X81415091Y-57426020D01*
X81409857Y-57426020D01*
X81409857Y-58271787D01*
X81095326Y-58271787D01*
X81095326Y-57050885D01*
X81479067Y-57050885D01*
X82281331Y-58258410D01*
G37*
D12*
%TO.C,SW2*%
X82134200Y-79416200D02*
X88706200Y-79416200D01*
X82134200Y-92186200D02*
X82134200Y-79416200D01*
D13*
X85420200Y-86436200D02*
X85420200Y-85166200D01*
X86055200Y-85801200D02*
X84785200Y-85801200D01*
D12*
X88706200Y-79416200D02*
X88706200Y-92186200D01*
X88706200Y-92186200D02*
X82134200Y-92186200D01*
D13*
X86055200Y-85801200D02*
G75*
G02*
X84785200Y-85801200I-635000J0D01*
G01*
X84785200Y-85801200D02*
G75*
G02*
X86055200Y-85801200I635000J0D01*
G01*
D12*
%TO.C,SW3*%
X82134200Y-62906200D02*
X88706200Y-62906200D01*
X82134200Y-75676200D02*
X82134200Y-62906200D01*
D13*
X85420200Y-69926200D02*
X85420200Y-68656200D01*
X86055200Y-69291200D02*
X84785200Y-69291200D01*
D12*
X88706200Y-62906200D02*
X88706200Y-75676200D01*
X88706200Y-75676200D02*
X82134200Y-75676200D01*
D13*
X86055200Y-69291200D02*
G75*
G02*
X84785200Y-69291200I-635000J0D01*
G01*
X84785200Y-69291200D02*
G75*
G02*
X86055200Y-69291200I635000J0D01*
G01*
%TD*%
M02*
